/* XPM */
static char * back_button_xpm[] = {
"50 50 309 2",
"  	c None",
". 	c #DBDBDD",
"+ 	c #DADADD",
"@ 	c #DADADC",
"# 	c #DBDBDC",
"$ 	c #CECFD1",
"% 	c #C6C7CA",
"& 	c #C0C1C3",
"* 	c #C3C4C6",
"= 	c #CCCDCF",
"- 	c #D2D2D4",
"; 	c #B6B8BA",
"> 	c #818588",
", 	c #5F6468",
"' 	c #5F6568",
") 	c #5F6567",
"! 	c #5F6467",
"~ 	c #73787B",
"{ 	c #A9ABAE",
"] 	c #CECED1",
"^ 	c #D9D9DB",
"/ 	c #83878A",
"( 	c #6B7173",
"_ 	c #D0D0D2",
": 	c #94979A",
"< 	c #606669",
"[ 	c #5E6468",
"} 	c #777C7E",
"| 	c #D6D6D8",
"1 	c #6F7478",
"2 	c #5E6568",
"3 	c #666B6E",
"4 	c #696E71",
"5 	c #B9BBBD",
"6 	c #D8D8DA",
"7 	c #6A7072",
"8 	c #C4C6C8",
"9 	c #727779",
"0 	c #656A6D",
"a 	c #A0A3A5",
"b 	c #717779",
"c 	c #60666A",
"d 	c #C7C8CA",
"e 	c #666B6F",
"f 	c #D5D5D7",
"g 	c #5E6467",
"h 	c #606668",
"i 	c #5C6265",
"j 	c #CACBCD",
"k 	c #C2C3C5",
"l 	c #62686A",
"m 	c #646A6C",
"n 	c #656B6E",
"o 	c #676C6F",
"p 	c #676D70",
"q 	c #686E70",
"r 	c #676D6F",
"s 	c #666C6F",
"t 	c #646A6D",
"u 	c #62696B",
"v 	c #5B6162",
"w 	c #414242",
"x 	c #393939",
"y 	c #5A5F61",
"z 	c #979B9D",
"A 	c #94989A",
"B 	c #696F71",
"C 	c #6C7174",
"D 	c #6D7375",
"E 	c #6E7476",
"F 	c #6F7477",
"G 	c #6F7577",
"H 	c #6E7376",
"I 	c #6B7073",
"J 	c #4C4D4F",
"K 	c #3A3A3A",
"L 	c #5D6366",
"M 	c #474A4B",
"N 	c #61676A",
"O 	c #707678",
"P 	c #73787A",
"Q 	c #757A7C",
"R 	c #767B7E",
"S 	c #777C7F",
"T 	c #787D7F",
"U 	c #787D80",
"V 	c #595C5D",
"W 	c #666C6E",
"X 	c #4E5253",
"Y 	c #D1D2D4",
"Z 	c #767B7D",
"` 	c #7B8082",
" .	c #7C8183",
"..	c #7E8284",
"+.	c #7F8486",
"@.	c #808486",
"#.	c #6B6E70",
"$.	c #414141",
"%.	c #3F3F40",
"&.	c #C2C3C6",
"*.	c #797E80",
"=.	c #7D8183",
"-.	c #828789",
";.	c #84898B",
">.	c #868B8D",
",.	c #878B8D",
"'.	c #84888A",
").	c #4A4A4B",
"!.	c #BBBDBF",
"~.	c #CECED0",
"{.	c #818688",
"].	c #8A8E90",
"^.	c #8C9092",
"/.	c #8E9194",
"(.	c #8F9395",
"_.	c #8D9193",
":.	c #535555",
"<.	c #868A8C",
"[.	c #919597",
"}.	c #939799",
"|.	c #95999B",
"1.	c #979A9C",
"2.	c #979B9C",
"3.	c #8B8E8F",
"4.	c #474747",
"5.	c #444445",
"6.	c #929698",
"7.	c #96999B",
"8.	c #999C9E",
"9.	c #9B9EA0",
"0.	c #9EA1A2",
"a.	c #9EA1A3",
"b.	c #9FA2A4",
"c.	c #7C7F80",
"d.	c #3C3C3C",
"e.	c #888C8E",
"f.	c #6B6F70",
"g.	c #3B3B3B",
"h.	c #898D90",
"i.	c #999D9E",
"j.	c #9DA0A1",
"k.	c #A3A6A7",
"l.	c #A5A8A9",
"m.	c #A6AAAA",
"n.	c #A7A9AB",
"o.	c #A6A9AB",
"p.	c #A6A9AA",
"q.	c #A3A6A8",
"r.	c #A1A4A5",
"s.	c #707172",
"t.	c #8E9294",
"u.	c #898D8F",
"v.	c #83888A",
"w.	c #5E6162",
"x.	c #A4A7A9",
"y.	c #A7AAAC",
"z.	c #AAADAE",
"A.	c #ACAFB0",
"B.	c #AEB0B2",
"C.	c #AFB1B2",
"D.	c #AEB1B2",
"E.	c #ADB0B1",
"F.	c #ABAEB0",
"G.	c #A9ABAD",
"H.	c #A5A8AA",
"I.	c #999C9D",
"J.	c #5B5C5D",
"K.	c #949899",
"L.	c #8E9395",
"M.	c #787B7D",
"N.	c #4E5051",
"O.	c #63696C",
"P.	c #C9CACC",
"Q.	c #A8AAAC",
"R.	c #ABAEAF",
"S.	c #B2B4B5",
"T.	c #B5B7B8",
"U.	c #B6B8B9",
"V.	c #B7B9BA",
"W.	c #B5B7B7",
"X.	c #B3B5B6",
"Y.	c #B0B3B4",
"Z.	c #A8ABAD",
"`.	c #A4A7A8",
" +	c #9A9D9F",
".+	c #95989A",
"++	c #838789",
"@+	c #9A9DA0",
"#+	c #A8ABAB",
"$+	c #B9BBBC",
"%+	c #BCBEBF",
"&+	c #BEBFC0",
"*+	c #BEC0C1",
"=+	c #BFC0C1",
"-+	c #BDBEBF",
";+	c #BABCBD",
">+	c #AFB1B3",
",+	c #A0A3A4",
"'+	c #878C8E",
")+	c #818587",
"!+	c #797E81",
"~+	c #6C7274",
"{+	c #656B6D",
"]+	c #ABADAF",
"^+	c #B8BABB",
"/+	c #C0C2C3",
"(+	c #C3C5C6",
"_+	c #C5C6C7",
":+	c #C7C8C9",
"<+	c #C6C7C8",
"[+	c #C4C5C6",
"}+	c #C1C3C4",
"|+	c #B0B2B4",
"1+	c #989C9D",
"2+	c #8C8F91",
"3+	c #85898B",
"4+	c #7E8385",
"5+	c #686E71",
"6+	c #616769",
"7+	c #696D71",
"8+	c #BCBDBE",
"9+	c #C3C4C5",
"0+	c #C8C9CA",
"a+	c #CACBCC",
"b+	c #CCCDCE",
"c+	c #CECFCF",
"d+	c #CECFD0",
"e+	c #CDCECF",
"f+	c #CCCDCD",
"g+	c #C9CACB",
"h+	c #C5C7C8",
"i+	c #C1C2C3",
"j+	c #BBBDBE",
"k+	c #B0B2B3",
"l+	c #9DA0A2",
"m+	c #888D8F",
"n+	c #828688",
"o+	c #7A7F81",
"p+	c #B3B4B6",
"q+	c #CBCCCD",
"r+	c #CFD0CF",
"s+	c #D2D2D3",
"t+	c #D5D6D6",
"u+	c #D6D6D7",
"v+	c #D3D4D4",
"w+	c #D0D1D1",
"x+	c #7D8284",
"y+	c #75797C",
"z+	c #D9DAD9",
"A+	c #DCDCDD",
"B+	c #DEDEDF",
"C+	c #DFDFDF",
"D+	c #DDDDDE",
"E+	c #DBDBDB",
"F+	c #D6D7D7",
"G+	c #C6C7C9",
"H+	c #C0C1C2",
"I+	c #969A9B",
"J+	c #808587",
"K+	c #D4D5D7",
"L+	c #D4D4D5",
"M+	c #E4E4E4",
"N+	c #E2E2E2",
"O+	c #DDDDDD",
"P+	c #D7D8D8",
"Q+	c #C4C6C7",
"R+	c #AEB1B3",
"S+	c #A7AAAB",
"T+	c #999B9E",
"U+	c #72777A",
"V+	c #6A7073",
"W+	c #63696B",
"X+	c #C8C9CB",
"Y+	c #D1D2D3",
"Z+	c #E3E3E3",
"`+	c #E5E5E5",
" @	c #CFD0D0",
".@	c #B1B3B4",
"+@	c #AAACAE",
"@@	c #A2A5A7",
"#@	c #9A9E9F",
"$@	c #939698",
"%@	c #8B8F91",
"&@	c #74797C",
"*@	c #6D7275",
"=@	c #BEC0C2",
"-@	c #E1E1E1",
";@	c #E0E0E1",
">@	c #D9DADA",
",@	c #B4B6B7",
"'@	c #ACAEB0",
")@	c #9B9FA0",
"!@	c #7B8083",
"~@	c #CCCCCF",
"{@	c #CDCDCF",
"]@	c #ADAFB1",
"^@	c #95999A",
"/@	c #858A8C",
"(@	c #D4D5D5",
"_@	c #CDCECE",
":@	c #9A9EA0",
"<@	c #D4D5D6",
"[@	c #CBCCCC",
"}@	c #C5C6C8",
"|@	c #DCDCDE",
"1@	c #D8D8D9",
"2@	c #D8D9DA",
"3@	c #D7D7D9",
"4@	c #D5D6D7",
"                                                                                                    ",
"                                      . + . . . + + . . . . .                                       ",
"                                . @ . . . . . . . . . . . . . . . #                                 ",
"                            . . . . . . . . . . . . . . . . . . . . . .                             ",
"                        . @ . . . . . . . . . . . . . . . . . . . . . . . @                         ",
"                      . . . . . . . . . . . . . . . . . . . . . . . . . . . . +                     ",
"                  @ . . . . . . . . . . . . . . . . . . . . . . . . . . . . . @ @                   ",
"                . . . . . . . . . . . . . . . . . . . . . . . . . . . . . . . . . .                 ",
"              + @ . . . . . . . . . . . . . $ % & * = . . . . . . . . . . . . . . # @               ",
"            . + . . . . . . . . . . - ; > , ' ) ! ' , ' ~ { ] . . . . . . . . . . @ . .             ",
"          . + . . . . . . . . . ^ / ' , ' ' ' ' ' ' ' ' ' ) ' ( _ . . . . . . . . . . . .           ",
"          . . . . . . . . . . : < [ ' ' ' ' ' ' ' ' ' ' ' ' ' ) ' } @ . . . . . . . . . .           ",
"        . . . . . . . . . | 1 ' ' ' ' ' ' ' ' ' ' ' ' ' ' ' ' ' ' 2 3 % . . . . . . . . . #         ",
"        . . . . . . . . $ 4 ' ' ' ' ' ' ' ' ' ' ' ' ' ' ' ' ' ' ' ' ' ) 5 . . . . . . . . . +       ",
"      . . . . . . . . 6 7 ' ' ' ' ' ' ' ' ' ' ' ' ' ' ' ' ' ' ' ' ' ' [ ! 8 . . . . . . . . .       ",
"      + . . . . . . . 9 , ' ' ' ' ' ' ' ' ' ' ' ' ' ' ' ' ' ' ' ' ' ' ' ' 0 @ . . . . . . . . .     ",
"    . @ . . . . . . a ' ' ' ' ' ' ' ' ' ' ' ' ' ' ' ' ' ' ' ' ' ' ' ' ' ' , b . . . . . . . . #     ",
"    # . . . . . . ^ c ' ' ' ' ' ' ' ' ' ' ' ' ' ' ' ' ' ' ' ' ' ' ' ' ' ' 2 ) d . . . . . . . .     ",
"    . . . . . . . : , ' ' ' ' ' ' ' ' ' ' ' ' ' ' ' ' ' ' ' ' ' ' ' ' ' ' ' ) e . . . . . . . . @   ",
"  + . . . . . . f [ g g ' ' h < < < < ' ) g g ' i ' ' ' ' ' ' i ' ' ' ' ' ' 2 ' j . . . . . . . .   ",
"  . . . . . . . k ' l m n o p p q p r s t u v w x [ ' ' ' y w x ' ' ' ' ' ' ' ' z . . . . . . . .   ",
"  # . . . . . . A s B C D E F G G G F H I J x K K h g L M x K K ' ' ' ' ' ' ' ' N . . . . . . . .   ",
"  . . . . . . . F F O P Q R S T U T } V K K K K x W X K K K K x ' ' ' ' ' ' ' ' 2 Y . . . . . . #   ",
"  # . . . . . . G Z U `  ...+.@.@.#.$.K K K K K x %.K K K K K x ' ' ' ' ' ' ' ' ' &.. . . . . . +   ",
"  . . . . . . Y *.=.@.-.;.>.,.'.).K K K K K K K K K K K K K K K ' ' ' ' ' ' ' ' 2 !.. . . . . . .   ",
"  . . . . . . ~.{.;.,.].^./.(._.:.K K K K K K K K K K K K K K K ' ' ' ' ' ' ' ' 2 ; . . . . . . .   ",
"  . . . . . . Y <.^.(.[.}.|.1.2.2.3.4.K K K K K K 5.K K K K K K g ' ' ' ' ' ' ' g 5 . . . . . . .   ",
"  # . . . . . . ,.6.7.8.9.0.a.b.b.a.a.c.d.K K K K e.f.g.K K K K l g ' ' ' ' ' ' g &.. . . . . . .   ",
"  @ . . . . . . h.i.j.a k.l.m.n.n.o.p.q.r.s.K K x t.u.v.w.K K x s < g ' ' ' ' ' , - . . . . . . @   ",
"  @ . . . . . . x.a x.y.z.A.B.C.C.D.E.F.G.H.I.J.x K.L.].v.M.N.x ( m ' ' ' ' ' ' O.. . . . . . . #   ",
"  . . . . . . . P.Q.R.C.S.T.U.V.V.U.W.X.Y.A.Z.`.b. +.+(.u.++ .Z F 4 l g ' ' ' ' @+. . . . . . . #   ",
"  + . . . . . . f #+S.U.$+%+&+*+=+*+-+;+V.X.>+z.l.,+ +: _.'+)+!+~ ~+{+' ' ' ) ' = . . . . . . . @   ",
"    . . . . . . . ]+^+-+/+(+_+:+:+<+[+}+*+;+U.|+R.l.,+1+6.2+3+4+S G 5+6+g ' , 7+. . . . . . . .     ",
"    . . . . . . . ^ 8+9+0+a+b+c+d+e+f+g+h+i+j+U.k+z.q.l+7.(.m+n+o+~ ~+m g ' 2 j . . . . . . . @     ",
"    . # . . . . . . p+q+r+s+t+u+u+u+v+w+q+:+}+j+T.D.Q.r. +}.^.'.x+R H s h ! y+. . . . . . . @ @     ",
"      . @ . . . . . . _+t+z+A+B+C+D+E+F+s+b+G+H+;+X.A.x.l+I+t.,.J+S O 4 6+n @ . . . . . . . .       ",
"      @ . . . . . . . K+L+B+M+M+M+M+N+O+P+s+q+Q+&+V.R+S+r.T+[.u.-.!+U+V+W+X+. . . . . . . @ @       ",
"        + . . . . . . . Y+A+Z+`+`+`+`+Z+O+u+ @0+/+$+.@+@@@#@$@%@++` &@*@=@. . . . . . . . #         ",
"        . . . . . . . . . f -@`+Z+`+`+`+;@>@s+a+9+j+,@'@`.)@A ^.;. .!@~@. . . . . . . . . .         ",
"          . . . . . . . . . . {@M+`+Z+M+M+A+L+b+_+%+T.]@x.l+^@_./@}.. . . . . . . . . + @           ",
"            . . . . . . . . . . . D+`+Z+M+A+(@_@h+-+T.B.l.l+.+:@<@. . . . . . . . . . .             ",
"              @ + . . . . . . . . . ^ # C+# L+[@(+j+,@R.|+}@f . . . . . . . . . . # #               ",
"                . . . . . . . . . . . . . |@1@2@3@1@4@D+. . . . . . . . . . . . . .                 ",
"                  @ . . . . . . . . . . . . . . . . . . . . . . . . . . . . . . .                   ",
"                    + # . . . . . . . . . . . . . . . . . . . . . . . . . . . .                     ",
"                      @ . + . . . . . . . . . . . . . . . . . . . . . . . . @                       ",
"                          . . # . . . . . . . . . . . . . . . . . . . . .                           ",
"                              . + . . . . . . . . . . . . . . . . @ .                               ",
"                                    . # @ . . . . . . . . . + +                                     ",
"                                            + . # # + +                                             "};
