/* XPM */
static char * back_button_pushed_xpm[] = {
"50 50 448 2",
"  	c None",
". 	c #DBDBDD",
"+ 	c #DADADD",
"@ 	c #DADADC",
"# 	c #DBDBDC",
"$ 	c #DBD7D6",
"% 	c #DBD1CC",
"& 	c #DBCDC5",
"* 	c #DBCEC8",
"= 	c #DBD6D6",
"- 	c #DBCEC7",
"; 	c #DBB49C",
"> 	c #DB864D",
", 	c #DB681B",
"' 	c #DC691C",
") 	c #DB691B",
"! 	c #DB7F41",
"~ 	c #DBA988",
"{ 	c #DBCCC4",
"] 	c #DBD8D8",
"^ 	c #DBAE92",
"/ 	c #DB6A1F",
"( 	c #DC681B",
"_ 	c #DB691C",
": 	c #DB9A70",
"< 	c #DBD9D9",
"[ 	c #DBB9A4",
"} 	c #DB6D24",
"| 	c #DB6D22",
"1 	c #DB9F77",
"2 	c #DBD0CB",
"3 	c #DB7938",
"4 	c #CF6823",
"5 	c #C76828",
"6 	c #C1682C",
"7 	c #C4682A",
"8 	c #CD6824",
"9 	c #DB7129",
"0 	c #DBB198",
"a 	c #DBBDAA",
"b 	c #D36821",
"c 	c #B76732",
"d 	c #816653",
"e 	c #5F6468",
"f 	c #5F6568",
"g 	c #5F6567",
"h 	c #5F6467",
"i 	c #74655B",
"j 	c #AA673A",
"k 	c #DC691B",
"l 	c #DB996D",
"m 	c #DBB095",
"n 	c #DA681D",
"o 	c #836651",
"p 	c #5F6566",
"q 	c #6B6560",
"r 	c #D16822",
"s 	c #DC681C",
"t 	c #DB8A54",
"u 	c #DBAE91",
"v 	c #946646",
"w 	c #606567",
"x 	c #5E6468",
"y 	c #776559",
"z 	c #DB681C",
"A 	c #DB8750",
"B 	c #DBB299",
"C 	c #D7681E",
"D 	c #6F645D",
"E 	c #5E6568",
"F 	c #666563",
"G 	c #DB9668",
"H 	c #696460",
"I 	c #BA6730",
"J 	c #DBAF92",
"K 	c #DB7E3F",
"L 	c #D9681D",
"M 	c #6A655F",
"N 	c #5E6467",
"O 	c #C56829",
"P 	c #DBB39A",
"Q 	c #72655B",
"R 	c #656463",
"S 	c #DB854D",
"T 	c #DB6F26",
"U 	c #A1663F",
"V 	c #72655C",
"W 	c #DBC1B1",
"X 	c #606466",
"Y 	c #5E6567",
"Z 	c #C86827",
"` 	c #DB8B56",
" .	c #DB722B",
"..	c #666463",
"+.	c #DBD5D3",
"@.	c #DBD2CE",
"#.	c #D6681F",
"$.	c #5E6466",
"%.	c #606668",
"&.	c #606669",
"*.	c #646464",
"=.	c #CB6826",
"-.	c #DBC6BA",
";.	c #DBC5B7",
">.	c #C2682B",
",.	c #62686A",
"'.	c #646A6C",
").	c #656B6E",
"!.	c #676C6F",
"~.	c #676D70",
"{.	c #686E70",
"].	c #676D6F",
"^.	c #666C6F",
"/.	c #646A6D",
"(.	c #62696B",
"_.	c #6D6560",
":.	c #AE6035",
"<.	c #C15E28",
"[.	c #6B645F",
"}.	c #986644",
"|.	c #DB996E",
"1.	c #DB9D75",
"2.	c #956849",
"3.	c #696F71",
"4.	c #6C7174",
"5.	c #6D7375",
"6.	c #6E7476",
"7.	c #6F7477",
"8.	c #6F7577",
"9.	c #6E7376",
"0.	c #6C7073",
"a.	c #A06544",
"b.	c #C05E29",
"c.	c #C15F29",
"d.	c #5E6366",
"e.	c #9C6140",
"f.	c #616566",
"g.	c #DB7F42",
"h.	c #6F6C6A",
"i.	c #707678",
"j.	c #73787A",
"k.	c #757A7C",
"l.	c #767B7E",
"m.	c #777C7F",
"n.	c #787D7F",
"o.	c #787D80",
"p.	c #777C7E",
"q.	c #986D55",
"r.	c #C05F29",
"s.	c #666C6E",
"t.	c #8D634C",
"u.	c #D26821",
"v.	c #767B7D",
"w.	c #7B8082",
"x.	c #7C8183",
"y.	c #7E8284",
"z.	c #7F8486",
"A.	c #808486",
"B.	c #91796B",
"C.	c #B96232",
"D.	c #C15E29",
"E.	c #B86131",
"F.	c #C3682A",
"G.	c #DBCBC3",
"H.	c #D2671F",
"I.	c #797E80",
"J.	c #7D8183",
"K.	c #828789",
"L.	c #84898B",
"M.	c #868B8D",
"N.	c #878B8D",
"O.	c #888989",
"P.	c #B4673E",
"Q.	c #C05F28",
"R.	c #BC672F",
"S.	c #DBC5B9",
"T.	c #CF6721",
"U.	c #818688",
"V.	c #8A8E90",
"W.	c #8C9092",
"X.	c #8E9194",
"Y.	c #8F9395",
"Z.	c #8F9293",
"`.	c #B16F4A",
" +	c #B76731",
".+	c #DBC3B4",
"++	c #D2671E",
"@+	c #868A8C",
"#+	c #919597",
"$+	c #939799",
"%+	c #95999B",
"&+	c #979A9C",
"*+	c #979B9C",
"=+	c #9C938D",
"-+	c #BA673A",
";+	c #B76437",
">+	c #929698",
",+	c #96999B",
"'+	c #999C9E",
")+	c #9B9EA0",
"!+	c #9EA1A2",
"~+	c #9EA1A3",
"{+	c #9FA2A4",
"]+	c #A78A7B",
"^+	c #C0602B",
"/+	c #888C8E",
"(+	c #967A6B",
"_+	c #BF5F2B",
":+	c #DB7D3D",
"<+	c #898684",
"[+	c #999D9E",
"}+	c #9DA0A1",
"|+	c #A0A3A5",
"1+	c #A3A6A7",
"2+	c #A5A8A9",
"3+	c #A6AAAA",
"4+	c #A7A9AB",
"5+	c #A6A9AB",
"6+	c #A6A9AA",
"7+	c #A3A6A8",
"8+	c #A1A4A5",
"9+	c #AE826B",
"0+	c #C15F28",
"a+	c #8E9294",
"b+	c #898D8F",
"c+	c #83888A",
"d+	c #9C725A",
"e+	c #DB9F78",
"f+	c #A5785A",
"g+	c #A4A7A9",
"h+	c #A7AAAC",
"i+	c #AAADAE",
"j+	c #ACAFB0",
"k+	c #AEB0B2",
"l+	c #AFB1B2",
"m+	c #AEB1B2",
"n+	c #ADB0B1",
"o+	c #ABAEB0",
"p+	c #A9ABAD",
"q+	c #A5A8AA",
"r+	c #A49F9B",
"s+	c #B47552",
"t+	c #949899",
"u+	c #8E9395",
"v+	c #837F7C",
"w+	c #A86946",
"x+	c #6B7173",
"y+	c #636565",
"z+	c #DB6F27",
"A+	c #DBC5B8",
"B+	c #CA6F32",
"C+	c #A8AAAC",
"D+	c #ABAEAF",
"E+	c #B2B4B5",
"F+	c #B5B7B8",
"G+	c #B6B8B9",
"H+	c #B7B9BA",
"I+	c #B5B7B7",
"J+	c #B3B5B6",
"K+	c #B0B3B4",
"L+	c #A8ABAD",
"M+	c #A4A7A8",
"N+	c #9A9D9F",
"O+	c #95989A",
"P+	c #838789",
"Q+	c #696E71",
"R+	c #9B6642",
"S+	c #DBD2CF",
"T+	c #A8ABAB",
"U+	c #B2B3B4",
"V+	c #B9BBBC",
"W+	c #BCBEBF",
"X+	c #BEBFC0",
"Y+	c #BEC0C1",
"Z+	c #BFC0C1",
"`+	c #BDBEBF",
" @	c #BABCBD",
".@	c #AFB1B3",
"+@	c #A0A3A4",
"@@	c #94979A",
"#@	c #8D9193",
"$@	c #878C8E",
"%@	c #818587",
"&@	c #797E81",
"*@	c #73787B",
"=@	c #6C7274",
"-@	c #656B6D",
";@	c #DB7834",
">@	c #AB8063",
",@	c #B8BABB",
"'@	c #C0C2C3",
")@	c #C3C5C6",
"!@	c #C5C6C7",
"~@	c #C7C8C9",
"{@	c #C6C7C8",
"]@	c #C4C5C6",
"^@	c #C1C3C4",
"/@	c #B0B2B4",
"(@	c #989C9D",
"_@	c #8C8F91",
":@	c #85898B",
"<@	c #7E8385",
"[@	c #686E71",
"}@	c #616769",
"|@	c #696461",
"1@	c #DBD6D5",
"2@	c #DBC4B6",
"3@	c #DA6A1E",
"4@	c #BCBBBB",
"5@	c #C3C3C4",
"6@	c #C8C9CA",
"7@	c #CACBCC",
"8@	c #CCCDCE",
"9@	c #CECFCF",
"0@	c #CECFD0",
"a@	c #CDCECF",
"b@	c #CCCDCD",
"c@	c #C9CACB",
"d@	c #C5C7C8",
"e@	c #C1C2C3",
"f@	c #BBBDBE",
"g@	c #B0B2B3",
"h@	c #9DA0A2",
"i@	c #888D8F",
"j@	c #828688",
"k@	c #7A7F81",
"l@	c #DB8F5D",
"m@	c #DB6E26",
"n@	c #B38465",
"o@	c #CBCCCD",
"p@	c #CFD0CF",
"q@	c #D2D2D3",
"r@	c #D5D6D6",
"s@	c #D6D6D7",
"t@	c #D3D4D4",
"u@	c #D0D1D1",
"v@	c #84888A",
"w@	c #7D8284",
"x@	c #756459",
"y@	c #DB6A1E",
"z@	c #DBD7D7",
"A@	c #C5B7AD",
"B@	c #D5D5D5",
"C@	c #D9DAD9",
"D@	c #DCDCDD",
"E@	c #DEDEDF",
"F@	c #DFDFDF",
"G@	c #DDDDDE",
"H@	c #DBDBDB",
"I@	c #D6D7D7",
"J@	c #C6C7C9",
"K@	c #C0C1C2",
"L@	c #969A9B",
"M@	c #808587",
"N@	c #616768",
"O@	c #DB7F43",
"P@	c #D56921",
"Q@	c #D4CFCD",
"R@	c #E4E4E4",
"S@	c #E2E2E2",
"T@	c #DDDDDD",
"U@	c #D7D8D8",
"V@	c #C4C6C7",
"W@	c #AEB1B3",
"X@	c #A7AAAB",
"Y@	c #999B9E",
"Z@	c #72777A",
"`@	c #6A6F72",
" #	c #63696B",
".#	c #C96827",
"+#	c #DB6E25",
"@#	c #DBD3D0",
"##	c #DB691D",
"$#	c #D27232",
"%#	c #DCDBD9",
"&#	c #E3E3E3",
"*#	c #E5E5E5",
"=#	c #CFD0D0",
"-#	c #B1B3B4",
";#	c #AAACAE",
">#	c #A2A5A7",
",#	c #9A9E9F",
"'#	c #939698",
")#	c #8B8F91",
"!#	c #74787B",
"~#	c #6D7275",
"{#	c #BF6B32",
"]#	c #DBB69F",
"^#	c #D66F2A",
"/#	c #E1D8D3",
"(#	c #E0E0E1",
"_#	c #D9DADA",
":#	c #C3C4C5",
"<#	c #B4B6B7",
"[#	c #ACAEB0",
"}#	c #9B9FA0",
"|#	c #94989A",
"1#	c #7B7A78",
"2#	c #CD6F30",
"3#	c #DBB297",
"4#	c #CDB8AB",
"5#	c #D4D4D5",
"6#	c #ADAFB1",
"7#	c #959899",
"8#	c #938275",
"9#	c #DC6C21",
"0#	c #DB8E5B",
"a#	c #DBB196",
"b#	c #DC7028",
"c#	c #DDD8D5",
"d#	c #D4D5D5",
"e#	c #CDCECE",
"f#	c #9D9FA1",
"g#	c #9B938D",
"h#	c #D57B3E",
"i#	c #DB8E5A",
"j#	c #DBB49B",
"k#	c #DA7734",
"l#	c #DCAC8C",
"m#	c #CBCCCC",
"n#	c #B0ABA8",
"o#	c #C69778",
"p#	c #D67839",
"q#	c #DC6A1D",
"r#	c #DB7A3A",
"s#	c #DD7632",
"t#	c #D8844C",
"u#	c #D98B57",
"v#	c #D78C5A",
"w#	c #D88853",
"x#	c #D68148",
"y#	c #DE7733",
"z#	c #DB7028",
"A#	c #DBB8A3",
"B#	c #DBB094",
"C#	c #DB6C21",
"D#	c #DB9567",
"E#	c #DBDADC",
"F#	c #DBBAA6",
"G#	c #DB6D25",
"H#	c #DBA47F",
"I#	c #DBCFC9",
"J#	c #DBBBA8",
"K#	c #DB8F5C",
"L#	c #DB732D",
"M#	c #DBB298",
"N#	c #DBCDC6",
"O#	c #DBDADB",
"                                                                                                    ",
"                                      . + . . . + + . . . . .                                       ",
"                                . @ . . . . . . . . . . . . . . . #                                 ",
"                            . . . . . . . . . . . . . . . . . . . . . .                             ",
"                        . @ . . . . . . . . $ % & * = . . . . . . . . . . @                         ",
"                      . . . . . . . - ; > , ' ' ' ' ) ' ! ~ { ] . . . . . . . +                     ",
"                  @ . . . . . . ^ / ( _ ' ' ' ' ' ' ' ' ' _ ) ) : < . . . . . @ @                   ",
"                . . . . . . [ } ' ' ' ' ' ' ' ' ' ' ' ' ' ' ' ' ' | 1 . . . . . . .                 ",
"              + @ . . . 2 3 , _ ' ' ' ' ' ' 4 5 6 7 8 ' ' ' ' ' ' ) ' 9 0 . . . . # @               ",
"            . + . . . a _ _ ' ' ' ' b c d e f g h f e f i j 4 ' ' ' ' _ k l . . . @ . .             ",
"          . + . . . m ' _ ' ' ' n o f e f f f f f f f f f p f q r ' ' ' _ s t . . . . . .           ",
"          . . . . u ' _ ' ' ' v w x g f f f f f f f f f f f g g f y z ' ' ' _ A . . . . .           ",
"        . . . . B k _ ' ' C D f g f f f f f f f f f f f f f f f g E F 5 ' ' ' ' G . . . . #         ",
"        . . . % ' , ' ' 4 H g f f f f f f f f f f f f f f f f f f f g g I ' ' ' , J . . . . +       ",
"      . . . . K z ' ' L M g f f f f f f f f f f f f f f f f f f f f f N h O ' ' _ | . . . . .       ",
"      + . . P ' ' ' ' Q h f f f f f f f f f f f f f f f f f f f f f f f g R z ' ' ' S . . . . .     ",
"    . @ . . T _ ' ' U f f f f f f f f f f f f f f f f f f f f f f f f f f e V ' ' ' / = . . . #     ",
"    # . . W , ' ' n X g f f f f f f f f f f f f f f f f f f f f f f f f f Y g Z ' ' , ` . . . .     ",
"    . . .  .z ' ' v e f f f f f f f f f f f f f f f f f f f f f f f f f f f g ..' ' z ' +.. . . @   ",
"  + . . @.z _ ' #.x $.N f f %.&.&.&.&.f g N N f *.f f f f f f *.f f f f f f Y f =.' ' ' -.. . . .   ",
"  . . . ;._ ' ' >.f ,.'.).!.~.~.{.~.].^./.(._.:.<.x f f f [.:.<.f f f f f f f g }.' ' ' |.. . . .   ",
"  # . . 1.' ' ' 2.^.3.4.5.6.7.8.8.8.7.9.0.a.<.b.c.%.N d.e.<.b.c.f f f f f f f f f.' ' ' } . . . .   ",
"  . . . g.' ' ' h.7.i.j.k.l.m.n.o.n.p.q.r.c.r.c.<.s.t.r.c.r.c.<.f f f f f f f f E u.' ' ' ] . . #   ",
"  # . . k ' ' ' 8.v.o.w.x.y.z.A.A.B.C.D.r.c.c.c.<.E.D.r.c.c.c.<.f f f f f f f f f F.' ' ) G.. . +   ",
"  . . . ' ' ' H.I.J.A.K.L.M.N.O.P.Q.c.c.c.c.c.c.c.c.c.c.c.c.c.c.f f f f f f f f E R.' ' _ S.. . .   ",
"  . . . ' ' ' T.U.L.N.V.W.X.Y.Z.`.c.Q.c.c.c.c.c.c.Q.c.c.c.c.c.c.f f f f f f f f E  +' ' _ .+. . .   ",
"  . . . ' ' ' ++@+W.Y.#+$+%+&+*+*+=+-+c.r.c.c.c.c.;+c.r.c.c.c.c.N f f f f f f f N I ' ' ' -.. . .   ",
"  # . . z ' ' ' N.>+,+'+)+!+~+{+{+~+~+]+^+c.r.c.c./+(+_+c.r.c.c.,.N f f f f f f N F.' ' ' { . . .   ",
"  @ . . :+' ' ' <+[+}+|+1+2+3+4+4+5+6+7+8+9+c.0+<.a+b+c+d+c.0+<.^.&.N f f f f f e b ' ' z = . . @   ",
"  @ . . e+' ' ' f+|+g+h+i+j+k+l+l+m+n+o+p+q+r+s+<.t+u+V.c+v+w+<.x+'.f f f f f f y+' ' ' z+. . . #   ",
"  . . . A+) ' ' B+C+D+l+E+F+G+H+H+G+I+J+K+j+L+M+{+N+O+Y.b+P+x.v.7.Q+,.N f f f g R+' ' _ : . . . #   ",
"  + . . S+) _ ' #.T+U+G+V+W+X+Y+Z+Y+`+ @H+J+.@i+2++@N+@@#@$@%@&@*@=@-@f f f p f 8 ' ' ' -.. . . @   ",
"    . . . ;@' ' ' >@,@`+'@)@!@~@~@{@]@^@Y+ @G+/@D+2++@(@>+_@:@<@m.8.[@}@N f e |@' ' z ' 1@. . .     ",
"    . . . 2@' ' ' 3@4@5@6@7@8@9@0@a@b@c@d@e@f@G+g@i+7+h@,+Y.i@j@k@*@=@'.N g E =.' ' ' l@. . . @     ",
"    . # . . m@_ ' ' n@o@p@q@r@s@s@s@t@u@o@~@^@f@F+m+C+8+N+$+W.v@w@l.9.^.%.h x@' ' ' y@z@. . @ @     ",
"      . @ . [ k ' ' ' A@B@C@D@E@F@G@H@I@q@8@J@K@ @J+j+g+h@L@a+N.M@m.i.Q+N@R z ' ' ' t . . . .       ",
"      @ . . . O@' ' ' P@Q@E@R@R@R@R@S@T@U@q@o@V@X+H+W@X@8+Y@#+b+K.&@Z@`@ #.#' ' _ +#. . . @ @       ",
"        + . . @###, ' ' $#%#&#*#*#*#*#&#T@s@=#6@'@V+-#;#>#,#'#)#P+w.!#~#{#' ' _ ' P . . . #         ",
"        . . . . ]#' _ ' ' ^#/#*#&#*#*#*#(#_#q@7@:#f@<#[#M+}#|#W.v@x.1#2#' ' ' k : . . . . .         ",
"          . . . . 3#' _ ' ' ' 4#R@*#&#R@R@D@5#8@!@W+F+6#g+h@7##@:@8#9#' ' ' _ 0#. . . + @           ",
"            . . . . a#) _ ' ' ' b#c#*#&#R@D@d#e#d@`+F+k+2+f#O+g#h#' ' ' _ ' i#. . . . .             ",
"              @ + . . j#' _ ' ' ' ' k#l#F@# 5#m#)@f@<#D+n#o#p#q#' ' ' _ ' 1 . . . # #               ",
"                . . . . @.r#_ _ ' ' ' ' ' s#t#u#v#w#x#y#' ' ' ' ' _ ' z#A#. . . . .                 ",
"                  @ . . . . B#+#( ' _ ' ' ' ' ' ' ' ' ' ' ' ' k _ C#D#. . . . . .                   ",
"                    + # . . . E#F#G#' _ ' ' ' ' ' ' ' ' ' _ ' _ H#< . . . . . .                     ",
"                      @ . + . . . . I#J#K#L#' _ z ' ' s S M#N#O#. . . . . . @                       ",
"                          . . # . . . . . . E#= S+$ $ . . . . . . . . . .                           ",
"                              . + . . . . . . . . . . . . . . . . @ .                               ",
"                                    . # @ . . . . . . . . . + +                                     ",
"                                            + . # # + +                                             "};
