/* XPM */
static char * forward_button_xpm[] = {
"50 50 307 2",
"  	c None",
". 	c #DBDBDD",
"+ 	c #DADADD",
"@ 	c #DADADC",
"# 	c #DBDBDC",
"$ 	c #CECFD1",
"% 	c #C6C7CA",
"& 	c #C0C1C3",
"* 	c #C3C4C6",
"= 	c #CCCDCF",
"- 	c #D2D2D4",
"; 	c #B6B8BA",
"> 	c #818588",
", 	c #5F6468",
"' 	c #5F6568",
") 	c #5F6567",
"! 	c #5F6467",
"~ 	c #73787B",
"{ 	c #A9ABAE",
"] 	c #CECED1",
"^ 	c #D9D9DB",
"/ 	c #83878A",
"( 	c #6B7173",
"_ 	c #D0D0D2",
": 	c #94979A",
"< 	c #606669",
"[ 	c #5E6468",
"} 	c #777C7E",
"| 	c #D6D6D8",
"1 	c #6F7478",
"2 	c #5E6568",
"3 	c #666B6E",
"4 	c #696E71",
"5 	c #B9BBBD",
"6 	c #D8D8DA",
"7 	c #6A7072",
"8 	c #C4C6C8",
"9 	c #727779",
"0 	c #656A6D",
"a 	c #A0A3A5",
"b 	c #717779",
"c 	c #60666A",
"d 	c #C7C8CA",
"e 	c #666B6F",
"f 	c #D5D5D7",
"g 	c #5E6467",
"h 	c #606668",
"i 	c #5D6366",
"j 	c #5C6265",
"k 	c #CACBCD",
"l 	c #C2C3C5",
"m 	c #62686A",
"n 	c #646A6C",
"o 	c #656B6E",
"p 	c #676C6F",
"q 	c #676D70",
"r 	c #686E70",
"s 	c #393939",
"t 	c #424344",
"u 	c #5E6366",
"v 	c #62696B",
"w 	c #616769",
"x 	c #414242",
"y 	c #5A5F61",
"z 	c #979B9D",
"A 	c #94989A",
"B 	c #666C6F",
"C 	c #696F71",
"D 	c #6C7174",
"E 	c #6D7375",
"F 	c #6E7476",
"G 	c #6F7477",
"H 	c #6F7577",
"I 	c #3A3A3A",
"J 	c #4C4D4F",
"K 	c #676D6F",
"L 	c #62686B",
"M 	c #474A4B",
"N 	c #61676A",
"O 	c #707678",
"P 	c #73787A",
"Q 	c #757A7C",
"R 	c #767B7E",
"S 	c #777C7F",
"T 	c #787D7F",
"U 	c #787D80",
"V 	c #545759",
"W 	c #6A6F72",
"X 	c #4D5052",
"Y 	c #D1D2D4",
"Z 	c #767B7D",
"` 	c #7B8082",
" .	c #7C8183",
"..	c #7E8284",
"+.	c #7F8486",
"@.	c #808486",
"#.	c #3F4040",
"$.	c #3D3E3E",
"%.	c #54585A",
"&.	c #C2C3C6",
"*.	c #797E80",
"=.	c #7D8183",
"-.	c #828789",
";.	c #84898B",
">.	c #868B8D",
",.	c #878B8D",
"'.	c #888C8E",
").	c #414243",
"!.	c #BBBDBF",
"~.	c #CECED0",
"{.	c #818688",
"].	c #8A8E90",
"^.	c #8C9092",
"/.	c #8E9194",
"(.	c #8F9395",
"_.	c #909496",
":.	c #444647",
"<.	c #868A8C",
"[.	c #919597",
"}.	c #939799",
"|.	c #95999B",
"1.	c #979A9C",
"2.	c #979B9C",
"3.	c #444545",
"4.	c #595E61",
"5.	c #929698",
"6.	c #96999B",
"7.	c #999C9E",
"8.	c #9B9EA0",
"9.	c #9EA1A2",
"0.	c #9EA1A3",
"a.	c #9FA2A4",
"b.	c #3C3C3C",
"c.	c #747778",
"d.	c #3B3B3B",
"e.	c #5D6062",
"f.	c #898D90",
"g.	c #999D9E",
"h.	c #9DA0A1",
"i.	c #A3A6A7",
"j.	c #A5A8A9",
"k.	c #A6AAAA",
"l.	c #A7A9AB",
"m.	c #A6A9AB",
"n.	c #707172",
"o.	c #9B9FA0",
"p.	c #929799",
"q.	c #5E6162",
"r.	c #A4A7A9",
"s.	c #A7AAAC",
"t.	c #AAADAE",
"u.	c #ACAFB0",
"v.	c #AEB0B2",
"w.	c #AFB1B2",
"x.	c #AEB1B2",
"y.	c #606161",
"z.	c #9FA1A3",
"A.	c #A5A8AA",
"B.	c #A2A5A6",
"C.	c #9DA1A3",
"D.	c #565858",
"E.	c #838788",
"F.	c #83888A",
"G.	c #717679",
"H.	c #63696C",
"I.	c #C9CACC",
"J.	c #A8AAAC",
"K.	c #ABAEAF",
"L.	c #B2B4B5",
"M.	c #B5B7B8",
"N.	c #B6B8B9",
"O.	c #B7B9BA",
"P.	c #B5B7B7",
"Q.	c #B3B5B6",
"R.	c #B0B3B4",
"S.	c #A8ABAD",
"T.	c #A4A7A8",
"U.	c #9A9D9F",
"V.	c #95989A",
"W.	c #898D8F",
"X.	c #838789",
"Y.	c #9A9DA0",
"Z.	c #A8ABAB",
"`.	c #B9BBBC",
" +	c #BCBEBF",
".+	c #BEBFC0",
"++	c #BEC0C1",
"@+	c #BFC0C1",
"#+	c #BDBEBF",
"$+	c #BABCBD",
"%+	c #AFB1B3",
"&+	c #A0A3A4",
"*+	c #8D9193",
"=+	c #878C8E",
"-+	c #818587",
";+	c #797E81",
">+	c #6C7274",
",+	c #656B6D",
"'+	c #ABADAF",
")+	c #B8BABB",
"!+	c #C0C2C3",
"~+	c #C3C5C6",
"{+	c #C5C6C7",
"]+	c #C7C8C9",
"^+	c #C6C7C8",
"/+	c #C4C5C6",
"(+	c #C1C3C4",
"_+	c #B0B2B4",
":+	c #989C9D",
"<+	c #8C8F91",
"[+	c #85898B",
"}+	c #7E8385",
"|+	c #686E71",
"1+	c #696D71",
"2+	c #BCBDBE",
"3+	c #C3C4C5",
"4+	c #C8C9CA",
"5+	c #CACBCC",
"6+	c #CCCDCE",
"7+	c #CECFCF",
"8+	c #CECFD0",
"9+	c #CDCECF",
"0+	c #CCCDCD",
"a+	c #C9CACB",
"b+	c #C5C7C8",
"c+	c #C1C2C3",
"d+	c #BBBDBE",
"e+	c #B0B2B3",
"f+	c #A3A6A8",
"g+	c #9DA0A2",
"h+	c #888D8F",
"i+	c #828688",
"j+	c #7A7F81",
"k+	c #B3B4B6",
"l+	c #CBCCCD",
"m+	c #CFD0CF",
"n+	c #D2D2D3",
"o+	c #D5D6D6",
"p+	c #D6D6D7",
"q+	c #D3D4D4",
"r+	c #D0D1D1",
"s+	c #A1A4A5",
"t+	c #84888A",
"u+	c #7D8284",
"v+	c #6E7376",
"w+	c #75797C",
"x+	c #D9DAD9",
"y+	c #DCDCDD",
"z+	c #DEDEDF",
"A+	c #DFDFDF",
"B+	c #DDDDDE",
"C+	c #DBDBDB",
"D+	c #D6D7D7",
"E+	c #C6C7C9",
"F+	c #C0C1C2",
"G+	c #969A9B",
"H+	c #8E9294",
"I+	c #808587",
"J+	c #D4D5D7",
"K+	c #D4D4D5",
"L+	c #E4E4E4",
"M+	c #E2E2E2",
"N+	c #DDDDDD",
"O+	c #D7D8D8",
"P+	c #C4C6C7",
"Q+	c #AEB1B3",
"R+	c #A7AAAB",
"S+	c #999B9E",
"T+	c #72777A",
"U+	c #6A7073",
"V+	c #63696B",
"W+	c #C8C9CB",
"X+	c #D1D2D3",
"Y+	c #E3E3E3",
"Z+	c #E5E5E5",
"`+	c #CFD0D0",
" @	c #B1B3B4",
".@	c #AAACAE",
"+@	c #A2A5A7",
"@@	c #9A9E9F",
"#@	c #939698",
"$@	c #8B8F91",
"%@	c #74797C",
"&@	c #6D7275",
"*@	c #BEC0C2",
"=@	c #E1E1E1",
"-@	c #E0E0E1",
";@	c #D9DADA",
">@	c #B4B6B7",
",@	c #ACAEB0",
"'@	c #7B8083",
")@	c #CCCCCF",
"!@	c #CDCDCF",
"~@	c #ADAFB1",
"{@	c #95999A",
"]@	c #858A8C",
"^@	c #D4D5D5",
"/@	c #CDCECE",
"(@	c #9A9EA0",
"_@	c #D4D5D6",
":@	c #CBCCCC",
"<@	c #C5C6C8",
"[@	c #DCDCDE",
"}@	c #D8D8D9",
"|@	c #D8D9DA",
"1@	c #D7D7D9",
"2@	c #D5D6D7",
"                                                                                                    ",
"                                      . + . . . + + . . . . .                                       ",
"                                . @ . . . . . . . . . . . . . . . #                                 ",
"                            . . . . . . . . . . . . . . . . . . . . . .                             ",
"                        . @ . . . . . . . . . . . . . . . . . . . . . . . @                         ",
"                      . . . . . . . . . . . . . . . . . . . . . . . . . . . . +                     ",
"                  @ . . . . . . . . . . . . . . . . . . . . . . . . . . . . . @ @                   ",
"                . . . . . . . . . . . . . . . . . . . . . . . . . . . . . . . . . .                 ",
"              + @ . . . . . . . . . . . . . $ % & * = . . . . . . . . . . . . . . # @               ",
"            . + . . . . . . . . . . - ; > , ' ) ! ' , ' ~ { ] . . . . . . . . . . @ . .             ",
"          . + . . . . . . . . . ^ / ' , ' ' ' ' ' ' ' ' ' ) ' ( _ . . . . . . . . . . . .           ",
"          . . . . . . . . . . : < [ ' ' ' ' ' ' ' ' ' ' ' ' ' ) ' } @ . . . . . . . . . .           ",
"        . . . . . . . . . | 1 ' ' ' ' ' ' ' ' ' ' ' ' ' ' ' ' ' ' 2 3 % . . . . . . . . . #         ",
"        . . . . . . . . $ 4 ' ' ' ' ' ' ' ' ' ' ' ' ' ' ' ' ' ' ' ' ' ) 5 . . . . . . . . . +       ",
"      . . . . . . . . 6 7 ' ' ' ' ' ' ' ' ' ' ' ' ' ' ' ' ' ' ' ' ' ' [ ! 8 . . . . . . . . .       ",
"      + . . . . . . . 9 , ' ' ' ' ' ' ' ' ' ' ' ' ' ' ' ' ' ' ' ' ' ' ' ' 0 @ . . . . . . . . .     ",
"    . @ . . . . . . a ' ' ' ' ' ' ' ' ' ' ' ' ' ' ' ' ' ' ' ' ' ' ' ' ' ' , b . . . . . . . . #     ",
"    # . . . . . . ^ c ' ' ' ' ' ' ' ' ' ' ' ' ' ' ' ' ' ' ' ' ' ' ' ' ' ' 2 ) d . . . . . . . .     ",
"    . . . . . . . : , ' ' ' ' ' ' ' ' ' ' ' ' ' ' ' ' ' ' ' ' ' ' ' ' ' ' ' ) e . . . . . . . . @   ",
"  + . . . . . . f [ g g ' ' h < < < i ' ) g g ' ' j ' ' ' ' ' ' ' ' ' ' ' ' 2 ' k . . . . . . . .   ",
"  . . . . . . . l ' m n o p q q r q s t u v w ' g s x y ' ' ' ' ' ' ' ' ' ' ' ' z . . . . . . . .   ",
"  # . . . . . . A B C D E F G H H H I I s J K o L I I s M g ' ' ' ' ' ' ' ' ' ' N . . . . . . . .   ",
"  . . . . . . . G G O P Q R S T U T s I I I I V W s I I I I X ' ' ' ' ' ' ' ' ' 2 Y . . . . . . #   ",
"  # . . . . . . H Z U `  ...+.@.@.+.s I I I I I #.s I I I I I $.%.' ' ' ' ' ' ' ' &.. . . . . . +   ",
"  . . . . . . Y *.=.@.-.;.>.,.,.'.,.I I I I I I I I I I I I I I I ).i ' ' ' ' ' 2 !.. . . . . . .   ",
"  . . . . . . ~.{.;.,.].^./.(.(._.(.I I I I I I I I I I I I I I I :.g ' ' ' ' ' 2 ; . . . . . . .   ",
"  . . . . . . Y <.^.(.[.}.|.1.2.2.2.I I I I I I 3.I I I I I I #.4.' ' ' ' ' ' ' g 5 . . . . . . .   ",
"  # . . . . . . ,.5.6.7.8.9.0.a.a.0.I I I I b.c.^.I I I I d.e.q m g ' ' ' ' ' ' g &.. . . . . . .   ",
"  @ . . . . . . f.g.h.a i.j.k.l.l.m.s I I n.o.1.p.s I I q.*.P E B < g ' ' ' ' ' , - . . . . . . @   ",
"  @ . . . . . . r.a r.s.t.u.v.w.w.x.s y.z.A.B.C.g.s D.E.F...T G.( n ' ' ' ' ' ' H.. . . . . . . #   ",
"  . . . . . . . I.J.K.w.L.M.N.O.O.N.P.Q.R.u.S.T.a.U.V.(.W.X. .Z G 4 m g ' ' ' ' Y.. . . . . . . #   ",
"  + . . . . . . f Z.L.N.`. +.+++@+++#+$+O.Q.%+t.j.&+U.: *+=+-+;+~ >+,+' ' ' ) ' = . . . . . . . @   ",
"    . . . . . . . '+)+#+!+~+{+]+]+^+/+(+++$+N._+K.j.&+:+5.<+[+}+S H |+w g ' , 1+. . . . . . . .     ",
"    . . . . . . . ^ 2+3+4+5+6+7+8+9+0+a+b+c+d+N.e+t.f+g+6.(.h+i+j+~ >+n g ' 2 k . . . . . . . @     ",
"    . # . . . . . . k+l+m+n+o+p+p+p+q+r+l+]+(+d+M.x.J.s+U.}.^.t+u+R v+B h ! w+. . . . . . . @ @     ",
"      . @ . . . . . . {+o+x+y+z+A+B+C+D+n+6+E+F+$+Q.u.r.g+G+H+,.I+S O 4 w o @ . . . . . . . .       ",
"      @ . . . . . . . J+K+z+L+L+L+L+M+N+O+n+l+P+.+O.Q+R+s+S+[.W.-.;+T+U+V+W+. . . . . . . @ @       ",
"        + . . . . . . . X+y+Y+Z+Z+Z+Z+Y+N+p+`+4+!+`. @.@+@@@#@$@X.` %@&@*@. . . . . . . . #         ",
"        . . . . . . . . . f =@Z+Y+Z+Z+Z+-@;@n+5+3+d+>@,@T.o.A ^.;. .'@)@. . . . . . . . . .         ",
"          . . . . . . . . . . !@L+Z+Y+L+L+y+K+6+{+ +M.~@r.g+{@*+]@}.. . . . . . . . . + @           ",
"            . . . . . . . . . . . B+Z+Y+L+y+^@/@b+#+M.v.j.g+V.(@_@. . . . . . . . . . .             ",
"              @ + . . . . . . . . . ^ # A+# K+:@~+d+>@K._+<@f . . . . . . . . . . # #               ",
"                . . . . . . . . . . . . . [@}@|@1@}@2@B+. . . . . . . . . . . . . .                 ",
"                  @ . . . . . . . . . . . . . . . . . . . . . . . . . . . . . . .                   ",
"                    + # . . . . . . . . . . . . . . . . . . . . . . . . . . . .                     ",
"                      @ . + . . . . . . . . . . . . . . . . . . . . . . . . @                       ",
"                          . . # . . . . . . . . . . . . . . . . . . . . .                           ",
"                              . + . . . . . . . . . . . . . . . . @ .                               ",
"                                    . # @ . . . . . . . . . + +                                     ",
"                                            + . # # + +                                             "};
