/* XPM */
static char * forward_button_pushed_xpm[] = {
"50 50 444 2",
"  	c None",
". 	c #DBDBDD",
"+ 	c #DADADD",
"@ 	c #DADADC",
"# 	c #DBDBDC",
"$ 	c #DBD7D6",
"% 	c #DBD1CC",
"& 	c #DBCDC5",
"* 	c #DBCEC8",
"= 	c #DBD6D6",
"- 	c #DBCEC7",
"; 	c #DBB49C",
"> 	c #DB864D",
", 	c #DB681B",
"' 	c #DC691C",
") 	c #DB691B",
"! 	c #DB7F41",
"~ 	c #DBA988",
"{ 	c #DBCCC4",
"] 	c #DBD8D8",
"^ 	c #DBAE92",
"/ 	c #DB6A1F",
"( 	c #DC681B",
"_ 	c #DB691C",
": 	c #DB9A70",
"< 	c #DBD9D9",
"[ 	c #DBB9A4",
"} 	c #DB6D24",
"| 	c #DB6D22",
"1 	c #DB9F77",
"2 	c #DBD0CB",
"3 	c #DB7938",
"4 	c #CF6823",
"5 	c #C76828",
"6 	c #C1682C",
"7 	c #C4682A",
"8 	c #CD6824",
"9 	c #DB7129",
"0 	c #DBB198",
"a 	c #DBBDAA",
"b 	c #D36821",
"c 	c #B76732",
"d 	c #816653",
"e 	c #5F6468",
"f 	c #5F6568",
"g 	c #5F6567",
"h 	c #5F6467",
"i 	c #74655B",
"j 	c #AA673A",
"k 	c #DC691B",
"l 	c #DB996D",
"m 	c #DBB095",
"n 	c #DA681D",
"o 	c #836651",
"p 	c #5F6566",
"q 	c #6B6560",
"r 	c #D16822",
"s 	c #DC681C",
"t 	c #DB8A54",
"u 	c #DBAE91",
"v 	c #946646",
"w 	c #606567",
"x 	c #5E6468",
"y 	c #776559",
"z 	c #DB681C",
"A 	c #DB8750",
"B 	c #DBB299",
"C 	c #D7681E",
"D 	c #6F645D",
"E 	c #5E6568",
"F 	c #666563",
"G 	c #DB9668",
"H 	c #696460",
"I 	c #BA6730",
"J 	c #DBAF92",
"K 	c #DB7E3F",
"L 	c #D9681D",
"M 	c #6A655F",
"N 	c #5E6467",
"O 	c #C56829",
"P 	c #DBB39A",
"Q 	c #72655B",
"R 	c #656463",
"S 	c #DB854D",
"T 	c #DB6F26",
"U 	c #A1663F",
"V 	c #72655C",
"W 	c #DBC1B1",
"X 	c #606466",
"Y 	c #5E6567",
"Z 	c #C86827",
"` 	c #DB8B56",
" .	c #DB722B",
"..	c #666463",
"+.	c #DBD5D3",
"@.	c #DBD2CE",
"#.	c #D6681F",
"$.	c #5E6466",
"%.	c #606668",
"&.	c #606669",
"*.	c #656565",
"=.	c #646464",
"-.	c #CB6826",
";.	c #DBC6BA",
">.	c #DBC5B7",
",.	c #C2682B",
"'.	c #62686A",
").	c #646A6C",
"!.	c #656B6E",
"~.	c #676C6F",
"{.	c #676D70",
"].	c #686E70",
"^.	c #C15E28",
"/.	c #AF6136",
"(.	c #6F6864",
"_.	c #62696B",
":.	c #616769",
"<.	c #AE6035",
"[.	c #6B645F",
"}.	c #986644",
"|.	c #DB996E",
"1.	c #DB9D75",
"2.	c #956849",
"3.	c #666C6F",
"4.	c #696F71",
"5.	c #6C7174",
"6.	c #6D7375",
"7.	c #6E7476",
"8.	c #6F7477",
"9.	c #6F7577",
"0.	c #C15F29",
"a.	c #C05E29",
"b.	c #A06544",
"c.	c #686D6F",
"d.	c #62686B",
"e.	c #9C6140",
"f.	c #616566",
"g.	c #DB7F42",
"h.	c #6F6C6A",
"i.	c #707678",
"j.	c #73787A",
"k.	c #757A7C",
"l.	c #767B7E",
"m.	c #777C7F",
"n.	c #787D7F",
"o.	c #787D80",
"p.	c #C05F29",
"q.	c #936951",
"r.	c #6A6F72",
"s.	c #8C624A",
"t.	c #D26821",
"u.	c #767B7D",
"v.	c #7B8082",
"w.	c #7C8183",
"x.	c #7E8284",
"y.	c #7F8486",
"z.	c #808486",
"A.	c #C15E29",
"B.	c #B86131",
"C.	c #B65F2F",
"D.	c #7A6355",
"E.	c #C3682A",
"F.	c #DBCBC3",
"G.	c #D2671F",
"H.	c #797E80",
"I.	c #7D8183",
"J.	c #828789",
"K.	c #84898B",
"L.	c #868B8D",
"M.	c #878B8D",
"N.	c #888C8E",
"O.	c #C05F28",
"P.	c #AB5F36",
"Q.	c #626465",
"R.	c #BC672F",
"S.	c #DBC5B9",
"T.	c #CF6721",
"U.	c #818688",
"V.	c #8A8E90",
"W.	c #8C9092",
"X.	c #8E9194",
"Y.	c #8F9395",
"Z.	c #909496",
"`.	c #A2603B",
" +	c #B76731",
".+	c #DBC3B4",
"++	c #D2671E",
"@+	c #868A8C",
"#+	c #919597",
"$+	c #939799",
"%+	c #95999B",
"&+	c #979A9C",
"*+	c #979B9C",
"=+	c #B76438",
"-+	c #B25F32",
";+	c #6A635F",
">+	c #929698",
",+	c #96999B",
"'+	c #999C9E",
")+	c #9B9EA0",
"!+	c #9EA1A2",
"~+	c #9EA1A3",
"{+	c #9FA2A4",
"]+	c #BF602B",
"^+	c #9F8373",
"/+	c #BF5F2A",
"(+	c #876C5D",
"_+	c #DB7D3D",
":+	c #898684",
"<+	c #999D9E",
"[+	c #9DA0A1",
"}+	c #A0A3A5",
"|+	c #A3A6A7",
"1+	c #A5A8A9",
"2+	c #A6AAAA",
"3+	c #A7A9AB",
"4+	c #A6A9AB",
"5+	c #C15F28",
"6+	c #AE826B",
"7+	c #9B9FA0",
"8+	c #929799",
"9+	c #9C725A",
"0+	c #DB9F78",
"a+	c #A5785A",
"b+	c #A4A7A9",
"c+	c #A7AAAC",
"d+	c #AAADAE",
"e+	c #ACAFB0",
"f+	c #AEB0B2",
"g+	c #AFB1B2",
"h+	c #AEB1B2",
"i+	c #B97956",
"j+	c #AAA4A2",
"k+	c #A5A8AA",
"l+	c #A2A5A6",
"m+	c #9DA1A3",
"n+	c #AF704D",
"o+	c #8E8A87",
"p+	c #83888A",
"q+	c #717679",
"r+	c #6B7173",
"s+	c #636565",
"t+	c #DB6F27",
"u+	c #DBC5B8",
"v+	c #CA6F32",
"w+	c #A8AAAC",
"x+	c #ABAEAF",
"y+	c #B2B4B5",
"z+	c #B5B7B8",
"A+	c #B6B8B9",
"B+	c #B7B9BA",
"C+	c #B5B7B7",
"D+	c #B3B5B6",
"E+	c #B0B3B4",
"F+	c #A8ABAD",
"G+	c #A4A7A8",
"H+	c #9A9D9F",
"I+	c #95989A",
"J+	c #898D8F",
"K+	c #838789",
"L+	c #696E71",
"M+	c #9B6642",
"N+	c #DBD2CF",
"O+	c #A8ABAB",
"P+	c #B2B3B4",
"Q+	c #B9BBBC",
"R+	c #BCBEBF",
"S+	c #BEBFC0",
"T+	c #BEC0C1",
"U+	c #BFC0C1",
"V+	c #BDBEBF",
"W+	c #BABCBD",
"X+	c #AFB1B3",
"Y+	c #A0A3A4",
"Z+	c #94979A",
"`+	c #8D9193",
" @	c #878C8E",
".@	c #818587",
"+@	c #797E81",
"@@	c #73787B",
"#@	c #6C7274",
"$@	c #656B6D",
"%@	c #DB7834",
"&@	c #AB8063",
"*@	c #B8BABB",
"=@	c #C0C2C3",
"-@	c #C3C5C6",
";@	c #C5C6C7",
">@	c #C7C8C9",
",@	c #C6C7C8",
"'@	c #C4C5C6",
")@	c #C1C3C4",
"!@	c #B0B2B4",
"~@	c #989C9D",
"{@	c #8C8F91",
"]@	c #85898B",
"^@	c #7E8385",
"/@	c #686E71",
"(@	c #696461",
"_@	c #DBD6D5",
":@	c #DBC4B6",
"<@	c #DA6A1E",
"[@	c #BCBBBB",
"}@	c #C3C3C4",
"|@	c #C8C9CA",
"1@	c #CACBCC",
"2@	c #CCCDCE",
"3@	c #CECFCF",
"4@	c #CECFD0",
"5@	c #CDCECF",
"6@	c #CCCDCD",
"7@	c #C9CACB",
"8@	c #C5C7C8",
"9@	c #C1C2C3",
"0@	c #BBBDBE",
"a@	c #B0B2B3",
"b@	c #A3A6A8",
"c@	c #9DA0A2",
"d@	c #888D8F",
"e@	c #828688",
"f@	c #7A7F81",
"g@	c #DB8F5D",
"h@	c #DB6E26",
"i@	c #B38465",
"j@	c #CBCCCD",
"k@	c #CFD0CF",
"l@	c #D2D2D3",
"m@	c #D5D6D6",
"n@	c #D6D6D7",
"o@	c #D3D4D4",
"p@	c #D0D1D1",
"q@	c #A1A4A5",
"r@	c #84888A",
"s@	c #7D8284",
"t@	c #6E7376",
"u@	c #756459",
"v@	c #DB6A1E",
"w@	c #DBD7D7",
"x@	c #C5B7AD",
"y@	c #D5D5D5",
"z@	c #D9DAD9",
"A@	c #DCDCDD",
"B@	c #DEDEDF",
"C@	c #DFDFDF",
"D@	c #DDDDDE",
"E@	c #DBDBDB",
"F@	c #D6D7D7",
"G@	c #C6C7C9",
"H@	c #C0C1C2",
"I@	c #969A9B",
"J@	c #8E9294",
"K@	c #808587",
"L@	c #616768",
"M@	c #DB7F43",
"N@	c #D56921",
"O@	c #D4CFCD",
"P@	c #E4E4E4",
"Q@	c #E2E2E2",
"R@	c #DDDDDD",
"S@	c #D7D8D8",
"T@	c #C4C6C7",
"U@	c #AEB1B3",
"V@	c #A7AAAB",
"W@	c #999B9E",
"X@	c #72777A",
"Y@	c #63696B",
"Z@	c #C96827",
"`@	c #DB6E25",
" #	c #DBD3D0",
".#	c #DB691D",
"+#	c #D27232",
"@#	c #DCDBD9",
"##	c #E3E3E3",
"$#	c #E5E5E5",
"%#	c #CFD0D0",
"&#	c #B1B3B4",
"*#	c #AAACAE",
"=#	c #A2A5A7",
"-#	c #9A9E9F",
";#	c #939698",
">#	c #8B8F91",
",#	c #74787B",
"'#	c #6D7275",
")#	c #BF6B32",
"!#	c #DBB69F",
"~#	c #D66F2A",
"{#	c #E1D8D3",
"]#	c #E0E0E1",
"^#	c #D9DADA",
"/#	c #C3C4C5",
"(#	c #B4B6B7",
"_#	c #ACAEB0",
":#	c #94989A",
"<#	c #7B7A78",
"[#	c #CD6F30",
"}#	c #DBB297",
"|#	c #CDB8AB",
"1#	c #D4D4D5",
"2#	c #ADAFB1",
"3#	c #959899",
"4#	c #938275",
"5#	c #DC6C21",
"6#	c #DB8E5B",
"7#	c #DBB196",
"8#	c #DC7028",
"9#	c #DDD8D5",
"0#	c #D4D5D5",
"a#	c #CDCECE",
"b#	c #9D9FA1",
"c#	c #9B938D",
"d#	c #D57B3E",
"e#	c #DB8E5A",
"f#	c #DBB49B",
"g#	c #DA7734",
"h#	c #DCAC8C",
"i#	c #CBCCCC",
"j#	c #B0ABA8",
"k#	c #C69778",
"l#	c #D67839",
"m#	c #DC6A1D",
"n#	c #DB7A3A",
"o#	c #DD7632",
"p#	c #D8844C",
"q#	c #D98B57",
"r#	c #D78C5A",
"s#	c #D88853",
"t#	c #D68148",
"u#	c #DE7733",
"v#	c #DB7028",
"w#	c #DBB8A3",
"x#	c #DBB094",
"y#	c #DB6C21",
"z#	c #DB9567",
"A#	c #DBDADC",
"B#	c #DBBAA6",
"C#	c #DB6D25",
"D#	c #DBA47F",
"E#	c #DBCFC9",
"F#	c #DBBBA8",
"G#	c #DB8F5C",
"H#	c #DB732D",
"I#	c #DBB298",
"J#	c #DBCDC6",
"K#	c #DBDADB",
"                                                                                                    ",
"                                      . + . . . + + . . . . .                                       ",
"                                . @ . . . . . . . . . . . . . . . #                                 ",
"                            . . . . . . . . . . . . . . . . . . . . . .                             ",
"                        . @ . . . . . . . . $ % & * = . . . . . . . . . . @                         ",
"                      . . . . . . . - ; > , ' ' ' ' ) ' ! ~ { ] . . . . . . . +                     ",
"                  @ . . . . . . ^ / ( _ ' ' ' ' ' ' ' ' ' _ ) ) : < . . . . . @ @                   ",
"                . . . . . . [ } ' ' ' ' ' ' ' ' ' ' ' ' ' ' ' ' ' | 1 . . . . . . .                 ",
"              + @ . . . 2 3 , _ ' ' ' ' ' ' 4 5 6 7 8 ' ' ' ' ' ' ) ' 9 0 . . . . # @               ",
"            . + . . . a _ _ ' ' ' ' b c d e f g h f e f i j 4 ' ' ' ' _ k l . . . @ . .             ",
"          . + . . . m ' _ ' ' ' n o f e f f f f f f f f f p f q r ' ' ' _ s t . . . . . .           ",
"          . . . . u ' _ ' ' ' v w x g f f f f f f f f f f f g g f y z ' ' ' _ A . . . . .           ",
"        . . . . B k _ ' ' C D f g f f f f f f f f f f f f f f f g E F 5 ' ' ' ' G . . . . #         ",
"        . . . % ' , ' ' 4 H g f f f f f f f f f f f f f f f f f f f g g I ' ' ' , J . . . . +       ",
"      . . . . K z ' ' L M g f f f f f f f f f f f f f f f f f f f f f N h O ' ' _ | . . . . .       ",
"      + . . P ' ' ' ' Q h f f f f f f f f f f f f f f f f f f f f f f f g R z ' ' ' S . . . . .     ",
"    . @ . . T _ ' ' U f f f f f f f f f f f f f f f f f f f f f f f f f f e V ' ' ' / = . . . #     ",
"    # . . W , ' ' n X g f f f f f f f f f f f f f f f f f f f f f f f f f Y g Z ' ' , ` . . . .     ",
"    . . .  .z ' ' v e f f f f f f f f f f f f f f f f f f f f f f f f f f f g ..' ' z ' +.. . . @   ",
"  + . . @.z _ ' #.x $.N f f %.&.&.&.*.f g N N f f =.f f f f f f f f f f f f Y f -.' ' ' ;.. . . .   ",
"  . . . >._ ' ' ,.f '.).!.~.{.{.].{.^./.(._.:.f N ^.<.[.f f f f f f f f f f f g }.' ' ' |.. . . .   ",
"  # . . 1.' ' ' 2.3.4.5.6.7.8.9.9.9.0.a.^.b.c.!.d.0.a.^.e.h f f f f f f f f f f f.' ' ' } . . . .   ",
"  . . . g.' ' ' h.8.i.j.k.l.m.n.o.n.^.0.p.0.p.q.r.^.0.p.0.p.s.f f f f f f f f f E t.' ' ' ] . . #   ",
"  # . . k ' ' ' 9.u.o.v.w.x.y.z.z.y.^.0.0.0.p.A.B.^.0.0.0.p.A.C.D.f f f f f f f f E.' ' ) F.. . +   ",
"  . . . ' ' ' G.H.I.z.J.K.L.M.M.N.M.0.0.0.0.0.0.0.0.0.0.0.0.0.0.O.P.Q.f f f f f E R.' ' _ S.. . .   ",
"  . . . ' ' ' T.U.K.M.V.W.X.Y.Y.Z.Y.0.0.0.0.0.0.O.0.0.0.0.0.0.O.0.`.X f f f f f E  +' ' _ .+. . .   ",
"  . . . ' ' ' ++@+W.Y.#+$+%+&+*+*+*+0.0.0.0.p.0.=+0.0.0.0.p.0.-+;+f f f f f f f N I ' ' ' ;.. . .   ",
"  # . . z ' ' ' M.>+,+'+)+!+~+{+{+~+0.0.p.0.]+^+W.0.0.p.0./+(+{.'.N f f f f f f N E.' ' ' { . . .   ",
"  @ . . _+' ' ' :+<+[+}+|+1+2+3+3+4+^.5+0.6+7+&+8+^.5+0.9+H.j.6.3.&.N f f f f f e b ' ' z = . . @   ",
"  @ . . 0+' ' ' a+}+b+c+d+e+f+g+g+h+^.i+j+k+l+m+<+^.n+o+p+x.n.q+r+).f f f f f f s+' ' ' t+. . . #   ",
"  . . . u+) ' ' v+w+x+g+y+z+A+B+B+A+C+D+E+e+F+G+{+H+I+Y.J+K+w.u.8.L+'.N f f f g M+' ' _ : . . . #   ",
"  + . . N+) _ ' #.O+P+A+Q+R+S+T+U+T+V+W+B+D+X+d+1+Y+H+Z+`+ @.@+@@@#@$@f f f p f 8 ' ' ' ;.. . . @   ",
"    . . . %@' ' ' &@*@V+=@-@;@>@>@,@'@)@T+W+A+!@x+1+Y+~@>+{@]@^@m.9./@:.N f e (@' ' z ' _@. . .     ",
"    . . . :@' ' ' <@[@}@|@1@2@3@4@5@6@7@8@9@0@A+a@d+b@c@,+Y.d@e@f@@@#@).N g E -.' ' ' g@. . . @     ",
"    . # . . h@_ ' ' i@j@k@l@m@n@n@n@o@p@j@>@)@0@z+h+w+q@H+$+W.r@s@l.t@3.%.h u@' ' ' v@w@. . @ @     ",
"      . @ . [ k ' ' ' x@y@z@A@B@C@D@E@F@l@2@G@H@W+D+e+b+c@I@J@M.K@m.i.L+L@R z ' ' ' t . . . .       ",
"      @ . . . M@' ' ' N@O@B@P@P@P@P@Q@R@S@l@j@T@S+B+U@V@q@W@#+J+J.+@X@r.Y@Z@' ' _ `@. . . @ @       ",
"        + . .  #.#, ' ' +#@###$#$#$#$###R@n@%#|@=@Q+&#*#=#-#;#>#K+v.,#'#)#' ' _ ' P . . . #         ",
"        . . . . !#' _ ' ' ~#{#$###$#$#$#]#^#l@1@/#0@(#_#G+7+:#W.r@w.<#[#' ' ' k : . . . . .         ",
"          . . . . }#' _ ' ' ' |#P@$###P@P@A@1#2@;@R+z+2#b+c@3#`+]@4#5#' ' ' _ 6#. . . + @           ",
"            . . . . 7#) _ ' ' ' 8#9#$###P@A@0#a#8@V+z+f+1+b#I+c#d#' ' ' _ ' e#. . . . .             ",
"              @ + . . f#' _ ' ' ' ' g#h#C@# 1#i#-@0@(#x+j#k#l#m#' ' ' _ ' 1 . . . # #               ",
"                . . . . @.n#_ _ ' ' ' ' ' o#p#q#r#s#t#u#' ' ' ' ' _ ' v#w#. . . . .                 ",
"                  @ . . . . x#`@( ' _ ' ' ' ' ' ' ' ' ' ' ' ' k _ y#z#. . . . . .                   ",
"                    + # . . . A#B#C#' _ ' ' ' ' ' ' ' ' ' _ ' _ D#< . . . . . .                     ",
"                      @ . + . . . . E#F#G#H#' _ z ' ' s S I#J#K#. . . . . . @                       ",
"                          . . # . . . . . . A#= N+$ $ . . . . . . . . . .                           ",
"                              . + . . . . . . . . . . . . . . . . @ .                               ",
"                                    . # @ . . . . . . . . . + +                                     ",
"                                            + . # # + +                                             "};
