/* XPM */
static char * pause_button_xpm[] = {
"50 50 415 2",
"  	c None",
". 	c #DBDBDD",
"+ 	c #DADADD",
"@ 	c #DADADC",
"# 	c #DBDBDC",
"$ 	c #DBD7D6",
"% 	c #DBD1CC",
"& 	c #DBCDC5",
"* 	c #DBCEC8",
"= 	c #DBD6D6",
"- 	c #DBCEC7",
"; 	c #DBB49C",
"> 	c #DB864D",
", 	c #DB681B",
"' 	c #DC691C",
") 	c #DB691B",
"! 	c #DB7F41",
"~ 	c #DBA988",
"{ 	c #DBCCC4",
"] 	c #DBD8D8",
"^ 	c #DBAE92",
"/ 	c #DB6A1F",
"( 	c #DC681B",
"_ 	c #DB691C",
": 	c #DB9A70",
"< 	c #DBD9D9",
"[ 	c #DBB9A4",
"} 	c #DB6D24",
"| 	c #DB6D22",
"1 	c #DB9F77",
"2 	c #DBD0CB",
"3 	c #DB7938",
"4 	c #CF6823",
"5 	c #C76828",
"6 	c #C1682C",
"7 	c #C4682A",
"8 	c #CD6824",
"9 	c #DB7129",
"0 	c #DBB198",
"a 	c #DBBDAA",
"b 	c #D36821",
"c 	c #B76732",
"d 	c #816653",
"e 	c #5F6468",
"f 	c #5F6568",
"g 	c #5F6567",
"h 	c #5F6467",
"i 	c #74655B",
"j 	c #AA673A",
"k 	c #DC691B",
"l 	c #DB996D",
"m 	c #DBB095",
"n 	c #DA681D",
"o 	c #836651",
"p 	c #5F6566",
"q 	c #6B6560",
"r 	c #D16822",
"s 	c #DC681C",
"t 	c #DB8A54",
"u 	c #DBAE91",
"v 	c #946646",
"w 	c #606567",
"x 	c #5E6468",
"y 	c #776559",
"z 	c #DB681C",
"A 	c #DB8750",
"B 	c #DBB299",
"C 	c #D7681E",
"D 	c #6F645D",
"E 	c #5E6568",
"F 	c #666563",
"G 	c #DB9668",
"H 	c #696460",
"I 	c #BA6730",
"J 	c #DBAF92",
"K 	c #DB7E3F",
"L 	c #D9681D",
"M 	c #6A655F",
"N 	c #5E6467",
"O 	c #C56829",
"P 	c #DBB39A",
"Q 	c #72655B",
"R 	c #656463",
"S 	c #DB854D",
"T 	c #DB6F26",
"U 	c #A1663F",
"V 	c #72655C",
"W 	c #DBC1B1",
"X 	c #606466",
"Y 	c #5E6567",
"Z 	c #C86827",
"` 	c #DB8B56",
" .	c #DB722B",
"..	c #666463",
"+.	c #DBD5D3",
"@.	c #DBD2CE",
"#.	c #D6681F",
"$.	c #5E6466",
"%.	c #606668",
"&.	c #606669",
"*.	c #C15F29",
"=.	c #CB6826",
"-.	c #DBC6BA",
";.	c #DBC5B7",
">.	c #C2682B",
",.	c #62686A",
"'.	c #646A6C",
").	c #656B6E",
"!.	c #676C6F",
"~.	c #676D70",
"{.	c #686E70",
"].	c #676D6F",
"^.	c #666C6F",
"/.	c #986644",
"(.	c #DB996E",
"_.	c #DB9D75",
":.	c #956849",
"<.	c #696F71",
"[.	c #6C7174",
"}.	c #6D7375",
"|.	c #6E7476",
"1.	c #6F7477",
"2.	c #6F7577",
"3.	c #6E7376",
"4.	c #62686B",
"5.	c #616566",
"6.	c #DB7F42",
"7.	c #6F6C6A",
"8.	c #707678",
"9.	c #73787A",
"0.	c #757A7C",
"a.	c #767B7E",
"b.	c #777C7F",
"c.	c #787D7F",
"d.	c #787D80",
"e.	c #777C7E",
"f.	c #767B7D",
"g.	c #6A6F72",
"h.	c #666C6E",
"i.	c #D26821",
"j.	c #7B8082",
"k.	c #7C8183",
"l.	c #7E8284",
"m.	c #7F8486",
"n.	c #808486",
"o.	c #7E8385",
"p.	c #7D8284",
"q.	c #6D7275",
"r.	c #C3682A",
"s.	c #DBCBC3",
"t.	c #D2671F",
"u.	c #797E80",
"v.	c #7D8183",
"w.	c #828789",
"x.	c #84898B",
"y.	c #868B8D",
"z.	c #878B8D",
"A.	c #888C8E",
"B.	c #858A8C",
"C.	c #787C7F",
"D.	c #73797C",
"E.	c #BC672F",
"F.	c #DBC5B9",
"G.	c #CF6721",
"H.	c #818688",
"I.	c #8A8E90",
"J.	c #8C9092",
"K.	c #8E9194",
"L.	c #8F9395",
"M.	c #909496",
"N.	c #8E9294",
"O.	c #7F8385",
"P.	c #7B7F81",
"Q.	c #B76731",
"R.	c #DBC3B4",
"S.	c #D2671E",
"T.	c #868A8C",
"U.	c #919597",
"V.	c #939799",
"W.	c #95999B",
"X.	c #979A9C",
"Y.	c #979B9C",
"Z.	c #96999B",
"`.	c #95989A",
" +	c #63696A",
".+	c #929698",
"++	c #999C9E",
"@+	c #9B9EA0",
"#+	c #9EA1A2",
"$+	c #9EA1A3",
"%+	c #9FA2A4",
"&+	c #9C9FA1",
"*+	c #DB7D3D",
"=+	c #898684",
"-+	c #999D9E",
";+	c #9DA0A1",
">+	c #A0A3A5",
",+	c #A3A6A7",
"'+	c #A5A8A9",
")+	c #A6AAAA",
"!+	c #A7A9AB",
"~+	c #A6A9AB",
"{+	c #A6A9AA",
"]+	c #A3A6A8",
"^+	c #929799",
"/+	c #DB9F78",
"(+	c #A5785A",
"_+	c #A4A7A9",
":+	c #A7AAAC",
"<+	c #AAADAE",
"[+	c #ACAFB0",
"}+	c #AEB0B2",
"|+	c #AFB1B2",
"1+	c #AEB1B2",
"2+	c #ADB0B1",
"3+	c #ABAEB0",
"4+	c #949899",
"5+	c #717679",
"6+	c #6B7173",
"7+	c #636565",
"8+	c #DB6F27",
"9+	c #DBC5B8",
"0+	c #CA6F32",
"a+	c #A8AAAC",
"b+	c #ABAEAF",
"c+	c #B2B4B5",
"d+	c #B5B7B8",
"e+	c #B6B8B9",
"f+	c #B7B9BA",
"g+	c #B5B7B7",
"h+	c #B3B5B6",
"i+	c #9A9D9F",
"j+	c #696E71",
"k+	c #9B6642",
"l+	c #DBD2CF",
"m+	c #A8ABAB",
"n+	c #B2B3B4",
"o+	c #B9BBBC",
"p+	c #BCBEBF",
"q+	c #BEBFC0",
"r+	c #BEC0C1",
"s+	c #BFC0C1",
"t+	c #BDBEBF",
"u+	c #BABCBD",
"v+	c #AFB1B3",
"w+	c #A0A3A4",
"x+	c #94979A",
"y+	c #8D9193",
"z+	c #878C8E",
"A+	c #818587",
"B+	c #797E81",
"C+	c #73787B",
"D+	c #6C7274",
"E+	c #656B6D",
"F+	c #DB7834",
"G+	c #AB8063",
"H+	c #B8BABB",
"I+	c #C0C2C3",
"J+	c #C3C5C6",
"K+	c #C5C6C7",
"L+	c #C7C8C9",
"M+	c #C6C7C8",
"N+	c #C4C5C6",
"O+	c #C1C3C4",
"P+	c #B0B2B4",
"Q+	c #989C9D",
"R+	c #8C8F91",
"S+	c #85898B",
"T+	c #686E71",
"U+	c #616769",
"V+	c #696461",
"W+	c #DBD6D5",
"X+	c #DBC4B6",
"Y+	c #DA6A1E",
"Z+	c #BCBBBB",
"`+	c #C3C3C4",
" @	c #C8C9CA",
".@	c #CACBCC",
"+@	c #CCCDCE",
"@@	c #CECFCF",
"#@	c #CECFD0",
"$@	c #CDCECF",
"%@	c #CCCDCD",
"&@	c #C9CACB",
"*@	c #C5C7C8",
"=@	c #C1C2C3",
"-@	c #BBBDBE",
";@	c #B0B2B3",
">@	c #9DA0A2",
",@	c #888D8F",
"'@	c #828688",
")@	c #7A7F81",
"!@	c #DB8F5D",
"~@	c #DB6E26",
"{@	c #B38465",
"]@	c #CBCCCD",
"^@	c #CFD0CF",
"/@	c #D2D2D3",
"(@	c #D5D6D6",
"_@	c #D6D6D7",
":@	c #D3D4D4",
"<@	c #D0D1D1",
"[@	c #A1A4A5",
"}@	c #84888A",
"|@	c #756459",
"1@	c #DB6A1E",
"2@	c #DBD7D7",
"3@	c #C5B7AD",
"4@	c #D5D5D5",
"5@	c #D9DAD9",
"6@	c #DCDCDD",
"7@	c #DEDEDF",
"8@	c #DFDFDF",
"9@	c #DDDDDE",
"0@	c #DBDBDB",
"a@	c #D6D7D7",
"b@	c #C6C7C9",
"c@	c #C0C1C2",
"d@	c #969A9B",
"e@	c #808587",
"f@	c #616768",
"g@	c #DB7F43",
"h@	c #D56921",
"i@	c #D4CFCD",
"j@	c #E4E4E4",
"k@	c #E2E2E2",
"l@	c #DDDDDD",
"m@	c #D7D8D8",
"n@	c #C4C6C7",
"o@	c #AEB1B3",
"p@	c #A7AAAB",
"q@	c #999B9E",
"r@	c #898D8F",
"s@	c #72777A",
"t@	c #63696B",
"u@	c #C96827",
"v@	c #DB6E25",
"w@	c #DBD3D0",
"x@	c #DB691D",
"y@	c #D27232",
"z@	c #DCDBD9",
"A@	c #E3E3E3",
"B@	c #E5E5E5",
"C@	c #CFD0D0",
"D@	c #B1B3B4",
"E@	c #AAACAE",
"F@	c #A2A5A7",
"G@	c #9A9E9F",
"H@	c #939698",
"I@	c #8B8F91",
"J@	c #838789",
"K@	c #74787B",
"L@	c #BF6B32",
"M@	c #DBB69F",
"N@	c #D66F2A",
"O@	c #E1D8D3",
"P@	c #E0E0E1",
"Q@	c #D9DADA",
"R@	c #C3C4C5",
"S@	c #B4B6B7",
"T@	c #ACAEB0",
"U@	c #A4A7A8",
"V@	c #9B9FA0",
"W@	c #94989A",
"X@	c #7B7A78",
"Y@	c #CD6F30",
"Z@	c #DBB297",
"`@	c #CDB8AB",
" #	c #D4D4D5",
".#	c #ADAFB1",
"+#	c #959899",
"@#	c #938275",
"##	c #DC6C21",
"$#	c #DB8E5B",
"%#	c #DBB196",
"&#	c #DC7028",
"*#	c #DDD8D5",
"=#	c #D4D5D5",
"-#	c #CDCECE",
";#	c #9D9FA1",
">#	c #9B938D",
",#	c #D57B3E",
"'#	c #DB8E5A",
")#	c #DBB49B",
"!#	c #DA7734",
"~#	c #DCAC8C",
"{#	c #CBCCCC",
"]#	c #B0ABA8",
"^#	c #C69778",
"/#	c #D67839",
"(#	c #DC6A1D",
"_#	c #DB7A3A",
":#	c #DD7632",
"<#	c #D8844C",
"[#	c #D98B57",
"}#	c #D78C5A",
"|#	c #D88853",
"1#	c #D68148",
"2#	c #DE7733",
"3#	c #DB7028",
"4#	c #DBB8A3",
"5#	c #DBB094",
"6#	c #DB6C21",
"7#	c #DB9567",
"8#	c #DBDADC",
"9#	c #DBBAA6",
"0#	c #DB6D25",
"a#	c #DBA47F",
"b#	c #DBCFC9",
"c#	c #DBBBA8",
"d#	c #DB8F5C",
"e#	c #DB732D",
"f#	c #DBB298",
"g#	c #DBCDC6",
"h#	c #DBDADB",
"                                                                                                    ",
"                                      . + . . . + + . . . . .                                       ",
"                                . @ . . . . . . . . . . . . . . . #                                 ",
"                            . . . . . . . . . . . . . . . . . . . . . .                             ",
"                        . @ . . . . . . . . $ % & * = . . . . . . . . . . @                         ",
"                      . . . . . . . - ; > , ' ' ' ' ) ' ! ~ { ] . . . . . . . +                     ",
"                  @ . . . . . . ^ / ( _ ' ' ' ' ' ' ' ' ' _ ) ) : < . . . . . @ @                   ",
"                . . . . . . [ } ' ' ' ' ' ' ' ' ' ' ' ' ' ' ' ' ' | 1 . . . . . . .                 ",
"              + @ . . . 2 3 , _ ' ' ' ' ' ' 4 5 6 7 8 ' ' ' ' ' ' ) ' 9 0 . . . . # @               ",
"            . + . . . a _ _ ' ' ' ' b c d e f g h f e f i j 4 ' ' ' ' _ k l . . . @ . .             ",
"          . + . . . m ' _ ' ' ' n o f e f f f f f f f f f p f q r ' ' ' _ s t . . . . . .           ",
"          . . . . u ' _ ' ' ' v w x g f f f f f f f f f f f g g f y z ' ' ' _ A . . . . .           ",
"        . . . . B k _ ' ' C D f g f f f f f f f f f f f f f f f g E F 5 ' ' ' ' G . . . . #         ",
"        . . . % ' , ' ' 4 H g f f f f f f f f f f f f f f f f f f f g g I ' ' ' , J . . . . +       ",
"      . . . . K z ' ' L M g f f f f f f f f f f f f f f f f f f f f f N h O ' ' _ | . . . . .       ",
"      + . . P ' ' ' ' Q h f f f f f f f f f f f f f f f f f f f f f f f g R z ' ' ' S . . . . .     ",
"    . @ . . T _ ' ' U f f f f f f f f f f f f f f f f f f f f f f f f f f e V ' ' ' / = . . . #     ",
"    # . . W , ' ' n X g f f f f f f f f f f f f f f f f f f f f f f f f f Y g Z ' ' , ` . . . .     ",
"    . . .  .z ' ' v e f f f f f f f f f f f f f f f f f f f f f f f f f f f g ..' ' z ' +.. . . @   ",
"  + . . @.z _ ' #.x $.N f f %.&.&.&.&.f *.*.*.*.f f *.*.*.*.f f f f f f f f Y f =.' ' ' -.. . . .   ",
"  . . . ;._ ' ' >.f ,.'.).!.~.~.{.~.].^.*.*.*.*.N x *.*.*.*.f f f f f f f f f g /.' ' ' (.. . . .   ",
"  # . . _.' ' ' :.^.<.[.}.|.1.2.2.2.1.3.*.*.*.*.4.%.*.*.*.*.f f f f f f f f f f 5.' ' ' } . . . .   ",
"  . . . 6.' ' ' 7.1.8.9.0.a.b.c.d.c.e.f.*.*.*.*.g.h.*.*.*.*.f f f f f f f f f f E i.' ' ' ] . . #   ",
"  # . . k ' ' ' 2.f.d.j.k.l.m.n.n.m.o.p.*.*.*.*.8.q.*.*.*.*.f f f f f f f f f f f r.' ' ) s.. . +   ",
"  . . . ' ' ' t.u.v.n.w.x.y.z.z.A.z.y.B.*.*.*.*.C.D.*.*.*.*.N f f f f f f f f f E E.' ' _ F.. . .   ",
"  . . . ' ' ' G.H.x.z.I.J.K.L.L.M.L.N.J.*.*.*.*.O.P.*.*.*.*.,.g f f f f f f f f E Q.' ' _ R.. . .   ",
"  . . . ' ' ' S.T.J.L.U.V.W.X.Y.Y.Y.Z.`.*.*.*.*.B.H.*.*.*.*.{. +N f f f f f f f N I ' ' ' -.. . .   ",
"  # . . z ' ' ' z..+Z.++@+#+$+%+%+$+$+&+*.*.*.*.J.A.*.*.*.*.3.~.,.N f f f f f f N r.' ' ' { . . .   ",
"  @ . . *+' ' ' =+-+;+>+,+'+)+!+!+~+{+]+*.*.*.*.^+N.*.*.*.*.9.}.^.&.N f f f f f e b ' ' z = . . @   ",
"  @ . . /+' ' ' (+>+_+:+<+[+}+|+|+1+2+3+*.*.*.*.-+4+*.*.*.*.c.5+6+'.f f f f f f 7+' ' ' 8+. . . #   ",
"  . . . 9+) ' ' 0+a+b+|+c+d+e+f+f+e+g+h+*.*.*.*.%+i+*.*.*.*.k.f.1.j+,.N f f f g k+' ' _ : . . . #   ",
"  + . . l+) _ ' #.m+n+e+o+p+q+r+s+r+t+u+f+h+v+<+'+w+i+x+y+z+A+B+C+D+E+f f f p f 8 ' ' ' -.. . . @   ",
"    . . . F+' ' ' G+H+t+I+J+K+L+L+M+N+O+r+u+e+P+b+'+w+Q+.+R+S+o.b.2.T+U+N f e V+' ' z ' W+. . .     ",
"    . . . X+' ' ' Y+Z+`+ @.@+@@@#@$@%@&@*@=@-@e+;@<+]+>@Z.L.,@'@)@C+D+'.N g E =.' ' ' !@. . . @     ",
"    . # . . ~@_ ' ' {@]@^@/@(@_@_@_@:@<@]@L+O+-@d+1+a+[@i+V.J.}@p.a.3.^.%.h |@' ' ' 1@2@. . @ @     ",
"      . @ . [ k ' ' ' 3@4@5@6@7@8@9@0@a@/@+@b@c@u+h+[+_+>@d@N.z.e@b.8.j+f@R z ' ' ' t . . . .       ",
"      @ . . . g@' ' ' h@i@7@j@j@j@j@k@l@m@/@]@n@q+f+o@p@[@q@U.r@w.B+s@g.t@u@' ' _ v@. . . @ @       ",
"        + . . w@x@, ' ' y@z@A@B@B@B@B@A@l@_@C@ @I+o+D@E@F@G@H@I@J@j.K@q.L@' ' _ ' P . . . #         ",
"        . . . . M@' _ ' ' N@O@B@A@B@B@B@P@Q@/@.@R@-@S@T@U@V@W@J.}@k.X@Y@' ' ' k : . . . . .         ",
"          . . . . Z@' _ ' ' ' `@j@B@A@j@j@6@ #+@K+p+d+.#_+>@+#y+S+@###' ' ' _ $#. . . + @           ",
"            . . . . %#) _ ' ' ' &#*#B@A@j@6@=#-#*@t+d+}+'+;#`.>#,#' ' ' _ ' '#. . . . .             ",
"              @ + . . )#' _ ' ' ' ' !#~#8@#  #{#J+-@S@b+]#^#/#(#' ' ' _ ' 1 . . . # #               ",
"                . . . . @._#_ _ ' ' ' ' ' :#<#[#}#|#1#2#' ' ' ' ' _ ' 3#4#. . . . .                 ",
"                  @ . . . . 5#v@( ' _ ' ' ' ' ' ' ' ' ' ' ' ' k _ 6#7#. . . . . .                   ",
"                    + # . . . 8#9#0#' _ ' ' ' ' ' ' ' ' ' _ ' _ a#< . . . . . .                     ",
"                      @ . + . . . . b#c#d#e#' _ z ' ' s S f#g#h#. . . . . . @                       ",
"                          . . # . . . . . . 8#= l+$ $ . . . . . . . . . .                           ",
"                              . + . . . . . . . . . . . . . . . . @ .                               ",
"                                    . # @ . . . . . . . . . + +                                     ",
"                                            + . # # + +                                             "};
