/* XPM */
static char * play_button_xpm[] = {
"50 50 298 2",
"  	c None",
". 	c #DBDBDD",
"+ 	c #DADADD",
"@ 	c #DADADC",
"# 	c #DBDBDC",
"$ 	c #CECFD1",
"% 	c #C6C7CA",
"& 	c #C0C1C3",
"* 	c #C3C4C6",
"= 	c #CCCDCF",
"- 	c #D2D2D4",
"; 	c #B6B8BA",
"> 	c #818588",
", 	c #5F6468",
"' 	c #5F6568",
") 	c #5F6567",
"! 	c #5F6467",
"~ 	c #73787B",
"{ 	c #A9ABAE",
"] 	c #CECED1",
"^ 	c #D9D9DB",
"/ 	c #83878A",
"( 	c #6B7173",
"_ 	c #D0D0D2",
": 	c #94979A",
"< 	c #606669",
"[ 	c #5E6468",
"} 	c #777C7E",
"| 	c #D6D6D8",
"1 	c #6F7478",
"2 	c #5E6568",
"3 	c #666B6E",
"4 	c #696E71",
"5 	c #B9BBBD",
"6 	c #D8D8DA",
"7 	c #6A7072",
"8 	c #C4C6C8",
"9 	c #727779",
"0 	c #656A6D",
"a 	c #A0A3A5",
"b 	c #717779",
"c 	c #60666A",
"d 	c #C7C8CA",
"e 	c #666B6F",
"f 	c #D5D5D7",
"g 	c #5E6467",
"h 	c #606668",
"i 	c #5B6164",
"j 	c #CACBCD",
"k 	c #C2C3C5",
"l 	c #62686A",
"m 	c #646A6C",
"n 	c #656B6E",
"o 	c #676C6F",
"p 	c #676D70",
"q 	c #686E70",
"r 	c #676D6F",
"s 	c #666C6F",
"t 	c #646A6D",
"u 	c #393939",
"v 	c #414243",
"w 	c #5A5F61",
"x 	c #979B9D",
"y 	c #94989A",
"z 	c #696F71",
"A 	c #6C7174",
"B 	c #6D7375",
"C 	c #6E7476",
"D 	c #6F7477",
"E 	c #6F7577",
"F 	c #6E7376",
"G 	c #3A3A3A",
"H 	c #494B4C",
"I 	c #61676A",
"J 	c #707678",
"K 	c #73787A",
"L 	c #757A7C",
"M 	c #767B7E",
"N 	c #777C7F",
"O 	c #787D7F",
"P 	c #787D80",
"Q 	c #767B7D",
"R 	c #4E5253",
"S 	c #D1D2D4",
"T 	c #7B8082",
"U 	c #7C8183",
"V 	c #7E8284",
"W 	c #7F8486",
"X 	c #808486",
"Y 	c #7E8385",
"Z 	c #7D8284",
"` 	c #3E3F3F",
" .	c #54595B",
"..	c #C2C3C6",
"+.	c #797E80",
"@.	c #7D8183",
"#.	c #828789",
"$.	c #84898B",
"%.	c #868B8D",
"&.	c #878B8D",
"*.	c #888C8E",
"=.	c #858A8C",
"-.	c #83888A",
";.	c #5C6265",
">.	c #BBBDBF",
",.	c #CECED0",
"'.	c #818688",
").	c #8A8E90",
"!.	c #8C9092",
"~.	c #8E9194",
"{.	c #8F9395",
"].	c #909496",
"^.	c #8E9294",
"/.	c #8B8F91",
"(.	c #47494A",
"_.	c #616769",
":.	c #868A8C",
"<.	c #919597",
"[.	c #939799",
"}.	c #95999B",
"|.	c #979A9C",
"1.	c #979B9C",
"2.	c #96999B",
"3.	c #95989A",
"4.	c #929698",
"5.	c #424343",
"6.	c #6A7071",
"7.	c #63696A",
"8.	c #999C9E",
"9.	c #9B9EA0",
"0.	c #9EA1A2",
"a.	c #9EA1A3",
"b.	c #9FA2A4",
"c.	c #9C9FA1",
"d.	c #9A9D9F",
"e.	c #3B3B3B",
"f.	c #6B6F70",
"g.	c #73797B",
"h.	c #898D90",
"i.	c #999D9E",
"j.	c #9DA0A1",
"k.	c #A3A6A7",
"l.	c #A5A8A9",
"m.	c #A6AAAA",
"n.	c #A7A9AB",
"o.	c #A6A9AB",
"p.	c #A6A9AA",
"q.	c #A3A6A8",
"r.	c #A1A4A5",
"s.	c #696C6D",
"t.	c #898D8F",
"u.	c #A4A7A9",
"v.	c #A7AAAC",
"w.	c #AAADAE",
"x.	c #ACAFB0",
"y.	c #AEB0B2",
"z.	c #AFB1B2",
"A.	c #AEB1B2",
"B.	c #ADB0B1",
"C.	c #ABAEB0",
"D.	c #A9ABAD",
"E.	c #5D5E5E",
"F.	c #949899",
"G.	c #8E9395",
"H.	c #717679",
"I.	c #63696C",
"J.	c #C9CACC",
"K.	c #A8AAAC",
"L.	c #ABAEAF",
"M.	c #B2B4B5",
"N.	c #B5B7B8",
"O.	c #B6B8B9",
"P.	c #B7B9BA",
"Q.	c #B5B7B7",
"R.	c #B3B5B6",
"S.	c #B0B3B4",
"T.	c #A8ABAD",
"U.	c #A4A7A8",
"V.	c #838789",
"W.	c #9A9DA0",
"X.	c #A8ABAB",
"Y.	c #B9BBBC",
"Z.	c #BCBEBF",
"`.	c #BEBFC0",
" +	c #BEC0C1",
".+	c #BFC0C1",
"++	c #BDBEBF",
"@+	c #BABCBD",
"#+	c #AFB1B3",
"$+	c #A0A3A4",
"%+	c #8D9193",
"&+	c #878C8E",
"*+	c #818587",
"=+	c #797E81",
"-+	c #6C7274",
";+	c #656B6D",
">+	c #ABADAF",
",+	c #B8BABB",
"'+	c #C0C2C3",
")+	c #C3C5C6",
"!+	c #C5C6C7",
"~+	c #C7C8C9",
"{+	c #C6C7C8",
"]+	c #C4C5C6",
"^+	c #C1C3C4",
"/+	c #B0B2B4",
"(+	c #989C9D",
"_+	c #8C8F91",
":+	c #85898B",
"<+	c #686E71",
"[+	c #696D71",
"}+	c #BCBDBE",
"|+	c #C3C4C5",
"1+	c #C8C9CA",
"2+	c #CACBCC",
"3+	c #CCCDCE",
"4+	c #CECFCF",
"5+	c #CECFD0",
"6+	c #CDCECF",
"7+	c #CCCDCD",
"8+	c #C9CACB",
"9+	c #C5C7C8",
"0+	c #C1C2C3",
"a+	c #BBBDBE",
"b+	c #B0B2B3",
"c+	c #9DA0A2",
"d+	c #888D8F",
"e+	c #828688",
"f+	c #7A7F81",
"g+	c #B3B4B6",
"h+	c #CBCCCD",
"i+	c #CFD0CF",
"j+	c #D2D2D3",
"k+	c #D5D6D6",
"l+	c #D6D6D7",
"m+	c #D3D4D4",
"n+	c #D0D1D1",
"o+	c #84888A",
"p+	c #75797C",
"q+	c #D9DAD9",
"r+	c #DCDCDD",
"s+	c #DEDEDF",
"t+	c #DFDFDF",
"u+	c #DDDDDE",
"v+	c #DBDBDB",
"w+	c #D6D7D7",
"x+	c #C6C7C9",
"y+	c #C0C1C2",
"z+	c #969A9B",
"A+	c #808587",
"B+	c #D4D5D7",
"C+	c #D4D4D5",
"D+	c #E4E4E4",
"E+	c #E2E2E2",
"F+	c #DDDDDD",
"G+	c #D7D8D8",
"H+	c #C4C6C7",
"I+	c #AEB1B3",
"J+	c #A7AAAB",
"K+	c #999B9E",
"L+	c #72777A",
"M+	c #6A7073",
"N+	c #63696B",
"O+	c #C8C9CB",
"P+	c #D1D2D3",
"Q+	c #E3E3E3",
"R+	c #E5E5E5",
"S+	c #CFD0D0",
"T+	c #B1B3B4",
"U+	c #AAACAE",
"V+	c #A2A5A7",
"W+	c #9A9E9F",
"X+	c #939698",
"Y+	c #74797C",
"Z+	c #6D7275",
"`+	c #BEC0C2",
" @	c #E1E1E1",
".@	c #E0E0E1",
"+@	c #D9DADA",
"@@	c #B4B6B7",
"#@	c #ACAEB0",
"$@	c #9B9FA0",
"%@	c #7B8083",
"&@	c #CCCCCF",
"*@	c #CDCDCF",
"=@	c #ADAFB1",
"-@	c #95999A",
";@	c #D4D5D5",
">@	c #CDCECE",
",@	c #9A9EA0",
"'@	c #D4D5D6",
")@	c #CBCCCC",
"!@	c #C5C6C8",
"~@	c #DCDCDE",
"{@	c #D8D8D9",
"]@	c #D8D9DA",
"^@	c #D7D7D9",
"/@	c #D5D6D7",
"                                                                                                    ",
"                                      . + . . . + + . . . . .                                       ",
"                                . @ . . . . . . . . . . . . . . . #                                 ",
"                            . . . . . . . . . . . . . . . . . . . . . .                             ",
"                        . @ . . . . . . . . . . . . . . . . . . . . . . . @                         ",
"                      . . . . . . . . . . . . . . . . . . . . . . . . . . . . +                     ",
"                  @ . . . . . . . . . . . . . . . . . . . . . . . . . . . . . @ @                   ",
"                . . . . . . . . . . . . . . . . . . . . . . . . . . . . . . . . . .                 ",
"              + @ . . . . . . . . . . . . . $ % & * = . . . . . . . . . . . . . . # @               ",
"            . + . . . . . . . . . . - ; > , ' ) ! ' , ' ~ { ] . . . . . . . . . . @ . .             ",
"          . + . . . . . . . . . ^ / ' , ' ' ' ' ' ' ' ' ' ) ' ( _ . . . . . . . . . . . .           ",
"          . . . . . . . . . . : < [ ' ' ' ' ' ' ' ' ' ' ' ' ' ) ' } @ . . . . . . . . . .           ",
"        . . . . . . . . . | 1 ' ' ' ' ' ' ' ' ' ' ' ' ' ' ' ' ' ' 2 3 % . . . . . . . . . #         ",
"        . . . . . . . . $ 4 ' ' ' ' ' ' ' ' ' ' ' ' ' ' ' ' ' ' ' ' ' ) 5 . . . . . . . . . +       ",
"      . . . . . . . . 6 7 ' ' ' ' ' ' ' ' ' ' ' ' ' ' ' ' ' ' ' ' ' ' [ ! 8 . . . . . . . . .       ",
"      + . . . . . . . 9 , ' ' ' ' ' ' ' ' ' ' ' ' ' ' ' ' ' ' ' ' ' ' ' ' 0 @ . . . . . . . . .     ",
"    . @ . . . . . . a ' ' ' ' ' ' ' ' ' ' ' ' ' ' ' ' ' ' ' ' ' ' ' ' ' ' , b . . . . . . . . #     ",
"    # . . . . . . ^ c ' ' ' ' ' ' ' ' ' ' ' ' ' ' ' ' ' ' ' ' ' ' ' ' ' ' 2 ) d . . . . . . . .     ",
"    . . . . . . . : , ' ' ' ' ' ' ' ' ' ' ' ' ' ' ' ' ' ' ' ' ' ' ' ' ' ' ' ) e . . . . . . . . @   ",
"  + . . . . . . f [ g g ' ' h < < < < ' ) i g ' ' ' ' ' ' ' ' ' ' ' ' ' ' ' 2 ' j . . . . . . . .   ",
"  . . . . . . . k ' l m n o p p q p r s t u v w g [ ' ' ' ' ' ' ' ' ' ' ' ' ' ' x . . . . . . . .   ",
"  # . . . . . . y s z A B C D E E E D F A G G u H ) g g ' ' ' ' ' ' ' ' ' ' ' ' I . . . . . . . .   ",
"  . . . . . . . D D J K L M N O P O } Q ~ u G G G G R ' ' ' ' ' ' ' ' ' ' ' ' ' 2 S . . . . . . #   ",
"  # . . . . . . E Q P T U V W X X W Y Z U u G G G G G `  .g ' ' ' ' ' ' ' ' ' ' ' ... . . . . . +   ",
"  . . . . . . S +.@.X #.$.%.&.&.*.&.%.=.-.G G G G G G G G v ;.' ' ' ' ' ' ' ' ' 2 >.. . . . . . .   ",
"  . . . . . . ,.'.$.&.).!.~.{.{.].{.^.!./.G G G G G G G G (._.) ' ' ' ' ' ' ' ' 2 ; . . . . . . .   ",
"  . . . . . . S :.!.{.<.[.}.|.1.1.1.2.3.4.G G G G G G 5.6.F q 7.g ' ' ' ' ' ' ' g 5 . . . . . . .   ",
"  # . . . . . . &.4.2.8.9.0.a.b.b.a.a.c.d.G G G G e.f.Y +.g.F p l g ' ' ' ' ' ' g ... . . . . . .   ",
"  @ . . . . . . h.i.j.a k.l.m.n.n.o.p.q.r.u G G s.^.t.-.Y +.K B s < g ' ' ' ' ' , - . . . . . . @   ",
"  @ . . . . . . u.a u.v.w.x.y.z.z.A.B.C.D.u E.y i.F.G.).-.V O H.( m ' ' ' ' ' ' I.. . . . . . . #   ",
"  . . . . . . . J.K.L.z.M.N.O.P.P.O.Q.R.S.x.T.U.b.d.3.{.t.V.U Q D 4 l g ' ' ' ' W.. . . . . . . #   ",
"  + . . . . . . f X.M.O.Y.Z.`. +.+ +++@+P.R.#+w.l.$+d.: %+&+*+=+~ -+;+' ' ' ) ' = . . . . . . . @   ",
"    . . . . . . . >+,+++'+)+!+~+~+{+]+^+ +@+O./+L.l.$+(+4._+:+Y N E <+_.g ' , [+. . . . . . . .     ",
"    . . . . . . . ^ }+|+1+2+3+4+5+6+7+8+9+0+a+O.b+w.q.c+2.{.d+e+f+~ -+m g ' 2 j . . . . . . . @     ",
"    . # . . . . . . g+h+i+j+k+l+l+l+m+n+h+~+^+a+N.A.K.r.d.[.!.o+Z M F s h ! p+. . . . . . . @ @     ",
"      . @ . . . . . . !+k+q+r+s+t+u+v+w+j+3+x+y+@+R.x.u.c+z+^.&.A+N J 4 _.n @ . . . . . . . .       ",
"      @ . . . . . . . B+C+s+D+D+D+D+E+F+G+j+h+H+`.P.I+J+r.K+<.t.#.=+L+M+N+O+. . . . . . . @ @       ",
"        + . . . . . . . P+r+Q+R+R+R+R+Q+F+l+S+1+'+Y.T+U+V+W+X+/.V.T Y+Z+`+. . . . . . . . #         ",
"        . . . . . . . . . f  @R+Q+R+R+R+.@+@j+2+|+a+@@#@U.$@y !.$.U %@&@. . . . . . . . . .         ",
"          . . . . . . . . . . *@D+R+Q+D+D+r+C+3+!+Z.N.=@u.c+-@%+=.[.. . . . . . . . . + @           ",
"            . . . . . . . . . . . u+R+Q+D+r+;@>@9+++N.y.l.c+3.,@'@. . . . . . . . . . .             ",
"              @ + . . . . . . . . . ^ # t+# C+)@)+a+@@L./+!@f . . . . . . . . . . # #               ",
"                . . . . . . . . . . . . . ~@{@]@^@{@/@u+. . . . . . . . . . . . . .                 ",
"                  @ . . . . . . . . . . . . . . . . . . . . . . . . . . . . . . .                   ",
"                    + # . . . . . . . . . . . . . . . . . . . . . . . . . . . .                     ",
"                      @ . + . . . . . . . . . . . . . . . . . . . . . . . . @                       ",
"                          . . # . . . . . . . . . . . . . . . . . . . . .                           ",
"                              . + . . . . . . . . . . . . . . . . @ .                               ",
"                                    . # @ . . . . . . . . . + +                                     ",
"                                            + . # # + +                                             "};
