/* XPM */
static char * play_button_hover_xpm[] = {
"50 50 439 2",
"  	c None",
". 	c #DBDBDD",
"+ 	c #DADADD",
"@ 	c #DADADC",
"# 	c #DBDBDC",
"$ 	c #DBD7D6",
"% 	c #DBD1CC",
"& 	c #DBCDC5",
"* 	c #DBCEC8",
"= 	c #DBD6D6",
"- 	c #DBCEC7",
"; 	c #DBB49C",
"> 	c #DB864D",
", 	c #DB681B",
"' 	c #DC691C",
") 	c #DB691B",
"! 	c #DB7F41",
"~ 	c #DBA988",
"{ 	c #DBCCC4",
"] 	c #DBD8D8",
"^ 	c #DBAE92",
"/ 	c #DB6A1F",
"( 	c #DC681B",
"_ 	c #DB691C",
": 	c #DB9A70",
"< 	c #DBD9D9",
"[ 	c #DBB9A4",
"} 	c #DB6D24",
"| 	c #DB6D22",
"1 	c #DB9F77",
"2 	c #DBD0CB",
"3 	c #DB7938",
"4 	c #CF6823",
"5 	c #C76828",
"6 	c #C1682C",
"7 	c #C4682A",
"8 	c #CD6824",
"9 	c #DB7129",
"0 	c #DBB198",
"a 	c #DBBDAA",
"b 	c #D36821",
"c 	c #B76732",
"d 	c #816653",
"e 	c #5F6468",
"f 	c #5F6568",
"g 	c #5F6567",
"h 	c #5F6467",
"i 	c #74655B",
"j 	c #AA673A",
"k 	c #DC691B",
"l 	c #DB996D",
"m 	c #DBB095",
"n 	c #DA681D",
"o 	c #836651",
"p 	c #5F6566",
"q 	c #6B6560",
"r 	c #D16822",
"s 	c #DC681C",
"t 	c #DB8A54",
"u 	c #DBAE91",
"v 	c #946646",
"w 	c #606567",
"x 	c #5E6468",
"y 	c #776559",
"z 	c #DB681C",
"A 	c #DB8750",
"B 	c #DBB299",
"C 	c #D7681E",
"D 	c #6F645D",
"E 	c #5E6568",
"F 	c #666563",
"G 	c #DB9668",
"H 	c #696460",
"I 	c #BA6730",
"J 	c #DBAF92",
"K 	c #DB7E3F",
"L 	c #D9681D",
"M 	c #6A655F",
"N 	c #5E6467",
"O 	c #C56829",
"P 	c #DBB39A",
"Q 	c #72655B",
"R 	c #656463",
"S 	c #DB854D",
"T 	c #DB6F26",
"U 	c #A1663F",
"V 	c #72655C",
"W 	c #DBC1B1",
"X 	c #606466",
"Y 	c #5E6567",
"Z 	c #C86827",
"` 	c #DB8B56",
" .	c #DB722B",
"..	c #666463",
"+.	c #DBD5D3",
"@.	c #DBD2CE",
"#.	c #D6681F",
"$.	c #5E6466",
"%.	c #606668",
"&.	c #606669",
"*.	c #636363",
"=.	c #CB6826",
"-.	c #DBC6BA",
";.	c #DBC5B7",
">.	c #C2682B",
",.	c #62686A",
"'.	c #646A6C",
").	c #656B6E",
"!.	c #676C6F",
"~.	c #676D70",
"{.	c #686E70",
"].	c #676D6F",
"^.	c #666C6F",
"/.	c #646A6D",
"(.	c #C15E28",
"_.	c #AE6035",
":.	c #6B645F",
"<.	c #986644",
"[.	c #DB996E",
"}.	c #DB9D75",
"|.	c #956849",
"1.	c #696F71",
"2.	c #6C7174",
"3.	c #6D7375",
"4.	c #6E7476",
"5.	c #6F7477",
"6.	c #6F7577",
"7.	c #6E7376",
"8.	c #C15F29",
"9.	c #C05E29",
"0.	c #9D6241",
"a.	c #616566",
"b.	c #DB7F42",
"c.	c #6F6C6A",
"d.	c #707678",
"e.	c #73787A",
"f.	c #757A7C",
"g.	c #767B7E",
"h.	c #777C7F",
"i.	c #787D7F",
"j.	c #787D80",
"k.	c #777C7E",
"l.	c #767B7D",
"m.	c #73787B",
"n.	c #C05F29",
"o.	c #8D634C",
"p.	c #D26821",
"q.	c #7B8082",
"r.	c #7C8183",
"s.	c #7E8284",
"t.	c #7F8486",
"u.	c #808486",
"v.	c #7E8385",
"w.	c #7D8284",
"x.	c #C15E29",
"y.	c #B76030",
"z.	c #7B6456",
"A.	c #C3682A",
"B.	c #DBCBC3",
"C.	c #D2671F",
"D.	c #797E80",
"E.	c #7D8183",
"F.	c #828789",
"G.	c #84898B",
"H.	c #868B8D",
"I.	c #878B8D",
"J.	c #888C8E",
"K.	c #858A8C",
"L.	c #83888A",
"M.	c #C05F28",
"N.	c #AC5F37",
"O.	c #616365",
"P.	c #BC672F",
"Q.	c #DBC5B9",
"R.	c #CF6721",
"S.	c #818688",
"T.	c #8A8E90",
"U.	c #8C9092",
"V.	c #8E9194",
"W.	c #8F9395",
"X.	c #909496",
"Y.	c #8E9294",
"Z.	c #8B8F91",
"`.	c #A5633E",
" +	c #636768",
".+	c #B76731",
"++	c #DBC3B4",
"@+	c #D2671E",
"#+	c #868A8C",
"$+	c #919597",
"%+	c #939799",
"&+	c #95999B",
"*+	c #979A9C",
"=+	c #979B9C",
"-+	c #96999B",
";+	c #95989A",
">+	c #929698",
",+	c #B56236",
"'+	c #7B746F",
")+	c #63696A",
"!+	c #999C9E",
"~+	c #9B9EA0",
"{+	c #9EA1A2",
"]+	c #9EA1A3",
"^+	c #9FA2A4",
"/+	c #9C9FA1",
"(+	c #9A9D9F",
"_+	c #BF602B",
":+	c #967A6B",
"<+	c #73797B",
"[+	c #DB7D3D",
"}+	c #898684",
"|+	c #999D9E",
"1+	c #9DA0A1",
"2+	c #A0A3A5",
"3+	c #A3A6A7",
"4+	c #A5A8A9",
"5+	c #A6AAAA",
"6+	c #A7A9AB",
"7+	c #A6A9AB",
"8+	c #A6A9AA",
"9+	c #A3A6A8",
"0+	c #A1A4A5",
"a+	c #C15F28",
"b+	c #A77C65",
"c+	c #898D8F",
"d+	c #DB9F78",
"e+	c #A5785A",
"f+	c #A4A7A9",
"g+	c #A7AAAC",
"h+	c #AAADAE",
"i+	c #ACAFB0",
"j+	c #AEB0B2",
"k+	c #AFB1B2",
"l+	c #AEB1B2",
"m+	c #ADB0B1",
"n+	c #ABAEB0",
"o+	c #A9ABAD",
"p+	c #B67653",
"q+	c #9F9B98",
"r+	c #949899",
"s+	c #8E9395",
"t+	c #717679",
"u+	c #6B7173",
"v+	c #636565",
"w+	c #DB6F27",
"x+	c #DBC5B8",
"y+	c #CA6F32",
"z+	c #A8AAAC",
"A+	c #ABAEAF",
"B+	c #B2B4B5",
"C+	c #B5B7B8",
"D+	c #B6B8B9",
"E+	c #B7B9BA",
"F+	c #B5B7B7",
"G+	c #B3B5B6",
"H+	c #B0B3B4",
"I+	c #A8ABAD",
"J+	c #A4A7A8",
"K+	c #838789",
"L+	c #696E71",
"M+	c #9B6642",
"N+	c #DBD2CF",
"O+	c #A8ABAB",
"P+	c #B2B3B4",
"Q+	c #B9BBBC",
"R+	c #BCBEBF",
"S+	c #BEBFC0",
"T+	c #BEC0C1",
"U+	c #BFC0C1",
"V+	c #BDBEBF",
"W+	c #BABCBD",
"X+	c #AFB1B3",
"Y+	c #A0A3A4",
"Z+	c #94979A",
"`+	c #8D9193",
" @	c #878C8E",
".@	c #818587",
"+@	c #797E81",
"@@	c #6C7274",
"#@	c #656B6D",
"$@	c #DB7834",
"%@	c #AB8063",
"&@	c #B8BABB",
"*@	c #C0C2C3",
"=@	c #C3C5C6",
"-@	c #C5C6C7",
";@	c #C7C8C9",
">@	c #C6C7C8",
",@	c #C4C5C6",
"'@	c #C1C3C4",
")@	c #B0B2B4",
"!@	c #989C9D",
"~@	c #8C8F91",
"{@	c #85898B",
"]@	c #686E71",
"^@	c #616769",
"/@	c #696461",
"(@	c #DBD6D5",
"_@	c #DBC4B6",
":@	c #DA6A1E",
"<@	c #BCBBBB",
"[@	c #C3C3C4",
"}@	c #C8C9CA",
"|@	c #CACBCC",
"1@	c #CCCDCE",
"2@	c #CECFCF",
"3@	c #CECFD0",
"4@	c #CDCECF",
"5@	c #CCCDCD",
"6@	c #C9CACB",
"7@	c #C5C7C8",
"8@	c #C1C2C3",
"9@	c #BBBDBE",
"0@	c #B0B2B3",
"a@	c #9DA0A2",
"b@	c #888D8F",
"c@	c #828688",
"d@	c #7A7F81",
"e@	c #DB8F5D",
"f@	c #DB6E26",
"g@	c #B38465",
"h@	c #CBCCCD",
"i@	c #CFD0CF",
"j@	c #D2D2D3",
"k@	c #D5D6D6",
"l@	c #D6D6D7",
"m@	c #D3D4D4",
"n@	c #D0D1D1",
"o@	c #84888A",
"p@	c #756459",
"q@	c #DB6A1E",
"r@	c #DBD7D7",
"s@	c #C5B7AD",
"t@	c #D5D5D5",
"u@	c #D9DAD9",
"v@	c #DCDCDD",
"w@	c #DEDEDF",
"x@	c #DFDFDF",
"y@	c #DDDDDE",
"z@	c #DBDBDB",
"A@	c #D6D7D7",
"B@	c #C6C7C9",
"C@	c #C0C1C2",
"D@	c #969A9B",
"E@	c #808587",
"F@	c #616768",
"G@	c #DB7F43",
"H@	c #D56921",
"I@	c #D4CFCD",
"J@	c #E4E4E4",
"K@	c #E2E2E2",
"L@	c #DDDDDD",
"M@	c #D7D8D8",
"N@	c #C4C6C7",
"O@	c #AEB1B3",
"P@	c #A7AAAB",
"Q@	c #999B9E",
"R@	c #72777A",
"S@	c #6A6F72",
"T@	c #63696B",
"U@	c #C96827",
"V@	c #DB6E25",
"W@	c #DBD3D0",
"X@	c #DB691D",
"Y@	c #D27232",
"Z@	c #DCDBD9",
"`@	c #E3E3E3",
" #	c #E5E5E5",
".#	c #CFD0D0",
"+#	c #B1B3B4",
"@#	c #AAACAE",
"##	c #A2A5A7",
"$#	c #9A9E9F",
"%#	c #939698",
"&#	c #74787B",
"*#	c #6D7275",
"=#	c #BF6B32",
"-#	c #DBB69F",
";#	c #D66F2A",
">#	c #E1D8D3",
",#	c #E0E0E1",
"'#	c #D9DADA",
")#	c #C3C4C5",
"!#	c #B4B6B7",
"~#	c #ACAEB0",
"{#	c #9B9FA0",
"]#	c #94989A",
"^#	c #7B7A78",
"/#	c #CD6F30",
"(#	c #DBB297",
"_#	c #CDB8AB",
":#	c #D4D4D5",
"<#	c #ADAFB1",
"[#	c #959899",
"}#	c #938275",
"|#	c #DC6C21",
"1#	c #DB8E5B",
"2#	c #DBB196",
"3#	c #DC7028",
"4#	c #DDD8D5",
"5#	c #D4D5D5",
"6#	c #CDCECE",
"7#	c #9D9FA1",
"8#	c #9B938D",
"9#	c #D57B3E",
"0#	c #DB8E5A",
"a#	c #DBB49B",
"b#	c #DA7734",
"c#	c #DCAC8C",
"d#	c #CBCCCC",
"e#	c #B0ABA8",
"f#	c #C69778",
"g#	c #D67839",
"h#	c #DC6A1D",
"i#	c #DB7A3A",
"j#	c #DD7632",
"k#	c #D8844C",
"l#	c #D98B57",
"m#	c #D78C5A",
"n#	c #D88853",
"o#	c #D68148",
"p#	c #DE7733",
"q#	c #DB7028",
"r#	c #DBB8A3",
"s#	c #DBB094",
"t#	c #DB6C21",
"u#	c #DB9567",
"v#	c #DBDADC",
"w#	c #DBBAA6",
"x#	c #DB6D25",
"y#	c #DBA47F",
"z#	c #DBCFC9",
"A#	c #DBBBA8",
"B#	c #DB8F5C",
"C#	c #DB732D",
"D#	c #DBB298",
"E#	c #DBCDC6",
"F#	c #DBDADB",
"                                                                                                    ",
"                                      . + . . . + + . . . . .                                       ",
"                                . @ . . . . . . . . . . . . . . . #                                 ",
"                            . . . . . . . . . . . . . . . . . . . . . .                             ",
"                        . @ . . . . . . . . $ % & * = . . . . . . . . . . @                         ",
"                      . . . . . . . - ; > , ' ' ' ' ) ' ! ~ { ] . . . . . . . +                     ",
"                  @ . . . . . . ^ / ( _ ' ' ' ' ' ' ' ' ' _ ) ) : < . . . . . @ @                   ",
"                . . . . . . [ } ' ' ' ' ' ' ' ' ' ' ' ' ' ' ' ' ' | 1 . . . . . . .                 ",
"              + @ . . . 2 3 , _ ' ' ' ' ' ' 4 5 6 7 8 ' ' ' ' ' ' ) ' 9 0 . . . . # @               ",
"            . + . . . a _ _ ' ' ' ' b c d e f g h f e f i j 4 ' ' ' ' _ k l . . . @ . .             ",
"          . + . . . m ' _ ' ' ' n o f e f f f f f f f f f p f q r ' ' ' _ s t . . . . . .           ",
"          . . . . u ' _ ' ' ' v w x g f f f f f f f f f f f g g f y z ' ' ' _ A . . . . .           ",
"        . . . . B k _ ' ' C D f g f f f f f f f f f f f f f f f g E F 5 ' ' ' ' G . . . . #         ",
"        . . . % ' , ' ' 4 H g f f f f f f f f f f f f f f f f f f f g g I ' ' ' , J . . . . +       ",
"      . . . . K z ' ' L M g f f f f f f f f f f f f f f f f f f f f f N h O ' ' _ | . . . . .       ",
"      + . . P ' ' ' ' Q h f f f f f f f f f f f f f f f f f f f f f f f g R z ' ' ' S . . . . .     ",
"    . @ . . T _ ' ' U f f f f f f f f f f f f f f f f f f f f f f f f f f e V ' ' ' / = . . . #     ",
"    # . . W , ' ' n X g f f f f f f f f f f f f f f f f f f f f f f f f f Y g Z ' ' , ` . . . .     ",
"    . . .  .z ' ' v e f f f f f f f f f f f f f f f f f f f f f f f f f f f g ..' ' z ' +.. . . @   ",
"  + . . @.z _ ' #.x $.N f f %.&.&.&.&.f g *.N f f f f f f f f f f f f f f f Y f =.' ' ' -.. . . .   ",
"  . . . ;._ ' ' >.f ,.'.).!.~.~.{.~.].^./.(._.:.N x f f f f f f f f f f f f f g <.' ' ' [.. . . .   ",
"  # . . }.' ' ' |.^.1.2.3.4.5.6.6.6.5.7.2.8.9.(.0.w N N f f f f f f f f f f f f a.' ' ' } . . . .   ",
"  . . . b.' ' ' c.5.d.e.f.g.h.i.j.i.k.l.m.(.8.n.8.n.o.f f f f f f f f f f f f f E p.' ' ' ] . . #   ",
"  # . . k ' ' ' 6.l.j.q.r.s.t.u.u.t.v.w.r.(.8.8.8.n.x.y.z.N f f f f f f f f f f f A.' ' ) B.. . +   ",
"  . . . ' ' ' C.D.E.u.F.G.H.I.I.J.I.H.K.L.8.8.8.8.8.8.8.M.N.O.f f f f f f f f f E P.' ' _ Q.. . .   ",
"  . . . ' ' ' R.S.G.I.T.U.V.W.W.X.W.Y.U.Z.8.8.8.8.8.8.M.8.`. +g f f f f f f f f E .+' ' _ ++. . .   ",
"  . . . ' ' ' @+#+U.W.$+%+&+*+=+=+=+-+;+>+8.8.8.8.n.8.,+'+7.{.)+N f f f f f f f N I ' ' ' -.. . .   ",
"  # . . z ' ' ' I.>+-+!+~+{+]+^+^+]+]+/+(+8.8.n.8._+:+v.D.<+7.~.,.N f f f f f f N A.' ' ' { . . .   ",
"  @ . . [+' ' ' }+|+1+2+3+4+5+6+6+7+8+9+0+(.a+8.b+Y.c+L.v.D.e.3.^.&.N f f f f f e b ' ' z = . . @   ",
"  @ . . d+' ' ' e+2+f+g+h+i+j+k+k+l+m+n+o+(.p+q+|+r+s+T.L.s.i.t+u+'.f f f f f f v+' ' ' w+. . . #   ",
"  . . . x+) ' ' y+z+A+k+B+C+D+E+E+D+F+G+H+i+I+J+^+(+;+W.c+K+r.l.5.L+,.N f f f g M+' ' _ : . . . #   ",
"  + . . N+) _ ' #.O+P+D+Q+R+S+T+U+T+V+W+E+G+X+h+4+Y+(+Z+`+ @.@+@m.@@#@f f f p f 8 ' ' ' -.. . . @   ",
"    . . . $@' ' ' %@&@V+*@=@-@;@;@>@,@'@T+W+D+)@A+4+Y+!@>+~@{@v.h.6.]@^@N f e /@' ' z ' (@. . .     ",
"    . . . _@' ' ' :@<@[@}@|@1@2@3@4@5@6@7@8@9@D+0@h+9+a@-+W.b@c@d@m.@@'.N g E =.' ' ' e@. . . @     ",
"    . # . . f@_ ' ' g@h@i@j@k@l@l@l@m@n@h@;@'@9@C+l+z+0+(+%+U.o@w.g.7.^.%.h p@' ' ' q@r@. . @ @     ",
"      . @ . [ k ' ' ' s@t@u@v@w@x@y@z@A@j@1@B@C@W+G+i+f+a@D@Y.I.E@h.d.L+F@R z ' ' ' t . . . .       ",
"      @ . . . G@' ' ' H@I@w@J@J@J@J@K@L@M@j@h@N@S+E+O@P@0+Q@$+c+F.+@R@S@T@U@' ' _ V@. . . @ @       ",
"        + . . W@X@, ' ' Y@Z@`@ # # # #`@L@l@.#}@*@Q++#@###$#%#Z.K+q.&#*#=#' ' _ ' P . . . #         ",
"        . . . . -#' _ ' ' ;#># #`@ # # #,#'#j@|@)#9@!#~#J+{#]#U.o@r.^#/#' ' ' k : . . . . .         ",
"          . . . . (#' _ ' ' ' _#J@ #`@J@J@v@:#1@-@R+C+<#f+a@[#`+{@}#|#' ' ' _ 1#. . . + @           ",
"            . . . . 2#) _ ' ' ' 3#4# #`@J@v@5#6#7@V+C+j+4+7#;+8#9#' ' ' _ ' 0#. . . . .             ",
"              @ + . . a#' _ ' ' ' ' b#c#x@# :#d#=@9@!#A+e#f#g#h#' ' ' _ ' 1 . . . # #               ",
"                . . . . @.i#_ _ ' ' ' ' ' j#k#l#m#n#o#p#' ' ' ' ' _ ' q#r#. . . . .                 ",
"                  @ . . . . s#V@( ' _ ' ' ' ' ' ' ' ' ' ' ' ' k _ t#u#. . . . . .                   ",
"                    + # . . . v#w#x#' _ ' ' ' ' ' ' ' ' ' _ ' _ y#< . . . . . .                     ",
"                      @ . + . . . . z#A#B#C#' _ z ' ' s S D#E#F#. . . . . . @                       ",
"                          . . # . . . . . . v#= N+$ $ . . . . . . . . . .                           ",
"                              . + . . . . . . . . . . . . . . . . @ .                               ",
"                                    . # @ . . . . . . . . . + +                                     ",
"                                            + . # # + +                                             "};
